solid ascii
  facet normal 9.994416e-01 -3.341498e-02 0.000000e+00
    outer loop
      vertex   -9.499469e+01 9.972055e+01 4.072226e+00
      vertex   -9.499469e+01 9.972055e+01 2.872226e+00
      vertex   -9.498352e+01 1.000545e+02 4.072226e+00
    endloop
  endfacet
  facet normal 9.949778e-01 -1.000957e-01 0.000000e+00
    outer loop
      vertex   -9.499469e+01 9.972055e+01 4.072226e+00
      vertex   -9.502813e+01 9.938808e+01 2.872226e+00
      vertex   -9.499469e+01 9.972055e+01 2.872226e+00
    endloop
  endfacet
  facet normal 9.949778e-01 -1.000957e-01 0.000000e+00
    outer loop
      vertex   -9.499469e+01 9.972055e+01 4.072226e+00
      vertex   -9.502813e+01 9.938808e+01 4.072226e+00
      vertex   -9.502813e+01 9.938808e+01 2.872226e+00
    endloop
  endfacet
  facet normal 9.860703e-01 -1.663294e-01 0.000000e+00
    outer loop
      vertex   -9.502813e+01 9.938808e+01 2.872226e+00
      vertex   -9.502813e+01 9.938808e+01 4.072226e+00
      vertex   -9.508371e+01 9.905859e+01 2.872226e+00
    endloop
  endfacet
  facet normal 9.860703e-01 -1.663294e-01 0.000000e+00
    outer loop
      vertex   -9.508371e+01 9.905859e+01 2.872226e+00
      vertex   -9.502813e+01 9.938808e+01 4.072226e+00
      vertex   -9.508371e+01 9.905859e+01 4.072226e+00
    endloop
  endfacet
  facet normal 9.727587e-01 -2.318202e-01 0.000000e+00
    outer loop
      vertex   -9.516117e+01 9.873354e+01 2.872226e+00
      vertex   -9.508371e+01 9.905859e+01 4.072226e+00
      vertex   -9.516117e+01 9.873354e+01 4.072226e+00
    endloop
  endfacet
  facet normal 9.551025e-01 -2.962756e-01 0.000000e+00
    outer loop
      vertex   -9.526017e+01 9.841439e+01 2.872226e+00
      vertex   -9.516117e+01 9.873354e+01 4.072226e+00
      vertex   -9.526017e+01 9.841439e+01 4.072226e+00
    endloop
  endfacet
  facet normal 9.331806e-01 -3.594078e-01 0.000000e+00
    outer loop
      vertex   -9.538027e+01 9.810257e+01 2.872226e+00
      vertex   -9.526017e+01 9.841439e+01 4.072226e+00
      vertex   -9.538027e+01 9.810257e+01 4.072226e+00
    endloop
  endfacet
  facet normal 9.070909e-01 -4.209348e-01 0.000000e+00
    outer loop
      vertex   -9.552093e+01 9.779947e+01 2.872226e+00
      vertex   -9.538027e+01 9.810257e+01 4.072226e+00
      vertex   -9.552093e+01 9.779947e+01 4.072226e+00
    endloop
  endfacet
  facet normal 8.769499e-01 -4.805818e-01 0.000000e+00
    outer loop
      vertex   -9.568151e+01 9.750643e+01 2.872226e+00
      vertex   -9.552093e+01 9.779947e+01 4.072226e+00
      vertex   -9.568151e+01 9.750643e+01 4.072226e+00
    endloop
  endfacet
  facet normal 8.428923e-01 -5.380824e-01 0.000000e+00
    outer loop
      vertex   -9.586131e+01 9.722478e+01 2.872226e+00
      vertex   -9.568151e+01 9.750643e+01 4.072226e+00
      vertex   -9.586131e+01 9.722478e+01 4.072226e+00
    endloop
  endfacet
  facet normal 8.050701e-01 -5.931797e-01 0.000000e+00
    outer loop
      vertex   -9.605952e+01 9.695577e+01 2.872226e+00
      vertex   -9.586131e+01 9.722478e+01 4.072226e+00
      vertex   -9.605952e+01 9.695577e+01 4.072226e+00
    endloop
  endfacet
  facet normal 7.636522e-01 -6.456279e-01 0.000000e+00
    outer loop
      vertex   -9.627526e+01 9.670059e+01 2.872226e+00
      vertex   -9.605952e+01 9.695577e+01 4.072226e+00
      vertex   -9.627526e+01 9.670059e+01 4.072226e+00
    endloop
  endfacet
  facet normal 7.188237e-01 -6.951924e-01 0.000000e+00
    outer loop
      vertex   -9.650756e+01 9.646040e+01 2.872226e+00
      vertex   -9.627526e+01 9.670059e+01 4.072226e+00
      vertex   -9.650756e+01 9.646040e+01 4.072226e+00
    endloop
  endfacet
  facet normal 6.707847e-01 -7.416521e-01 0.000000e+00
    outer loop
      vertex   -9.675538e+01 9.623626e+01 2.872226e+00
      vertex   -9.650756e+01 9.646040e+01 4.072226e+00
      vertex   -9.675538e+01 9.623626e+01 4.072226e+00
    endloop
  endfacet
  facet normal 6.197499e-01 -7.847994e-01 0.000000e+00
    outer loop
      vertex   -9.701762e+01 9.602917e+01 2.872226e+00
      vertex   -9.675538e+01 9.623626e+01 4.072226e+00
      vertex   -9.701762e+01 9.602917e+01 4.072226e+00
    endloop
  endfacet
  facet normal 5.659471e-01 -8.244416e-01 0.000000e+00
    outer loop
      vertex   -9.729311e+01 9.584006e+01 2.872226e+00
      vertex   -9.701762e+01 9.602917e+01 4.072226e+00
      vertex   -9.729311e+01 9.584006e+01 4.072226e+00
    endloop
  endfacet
  facet normal 5.096166e-01 -8.604016e-01 0.000000e+00
    outer loop
      vertex   -9.758061e+01 9.566977e+01 2.872226e+00
      vertex   -9.729311e+01 9.584006e+01 4.072226e+00
      vertex   -9.758061e+01 9.566977e+01 4.072226e+00
    endloop
  endfacet
  facet normal 4.510101e-01 -8.925188e-01 0.000000e+00
    outer loop
      vertex   -9.787885e+01 9.551906e+01 2.872226e+00
      vertex   -9.758061e+01 9.566977e+01 4.072226e+00
      vertex   -9.787885e+01 9.551906e+01 4.072226e+00
    endloop
  endfacet
  facet normal 3.903893e-01 -9.206499e-01 0.000000e+00
    outer loop
      vertex   -9.818648e+01 9.538861e+01 2.872226e+00
      vertex   -9.787885e+01 9.551906e+01 4.072226e+00
      vertex   -9.818648e+01 9.538861e+01 4.072226e+00
    endloop
  endfacet
  facet normal 3.280249e-01 -9.446691e-01 0.000000e+00
    outer loop
      vertex   -9.850214e+01 9.527900e+01 2.872226e+00
      vertex   -9.818648e+01 9.538861e+01 4.072226e+00
      vertex   -9.850214e+01 9.527900e+01 4.072226e+00
    endloop
  endfacet
  facet normal 2.641954e-01 -9.644692e-01 0.000000e+00
    outer loop
      vertex   -9.882442e+01 9.519072e+01 2.872226e+00
      vertex   -9.850214e+01 9.527900e+01 4.072226e+00
      vertex   -9.882442e+01 9.519072e+01 4.072226e+00
    endloop
  endfacet
  facet normal 1.991860e-01 -9.799617e-01 0.000000e+00
    outer loop
      vertex   -9.915187e+01 9.512417e+01 2.872226e+00
      vertex   -9.882442e+01 9.519072e+01 4.072226e+00
      vertex   -9.915187e+01 9.512417e+01 4.072226e+00
    endloop
  endfacet
  facet normal 1.332870e-01 -9.910775e-01 0.000000e+00
    outer loop
      vertex   -9.948304e+01 9.507963e+01 2.872226e+00
      vertex   -9.915187e+01 9.512417e+01 4.072226e+00
      vertex   -9.948304e+01 9.507963e+01 4.072226e+00
    endloop
  endfacet
  facet normal 6.679263e-02 -9.977669e-01 0.000000e+00
    outer loop
      vertex   -9.981644e+01 9.505731e+01 2.872226e+00
      vertex   -9.948304e+01 9.507963e+01 4.072226e+00
      vertex   -9.981644e+01 9.505731e+01 4.072226e+00
    endloop
  endfacet
  facet normal 0.000000e+00 -1.000000e+00 0.000000e+00
    outer loop
      vertex   -1.001506e+02 9.505731e+01 2.872226e+00
      vertex   -9.981644e+01 9.505731e+01 4.072226e+00
      vertex   -1.001506e+02 9.505731e+01 4.072226e+00
    endloop
  endfacet
  facet normal -6.679263e-02 -9.977669e-01 0.000000e+00
    outer loop
      vertex   -1.004840e+02 9.507963e+01 2.872226e+00
      vertex   -1.001506e+02 9.505731e+01 4.072226e+00
      vertex   -1.004840e+02 9.507963e+01 4.072226e+00
    endloop
  endfacet
  facet normal -1.332870e-01 -9.910775e-01 0.000000e+00
    outer loop
      vertex   -1.008152e+02 9.512417e+01 2.872226e+00
      vertex   -1.004840e+02 9.507963e+01 4.072226e+00
      vertex   -1.008152e+02 9.512417e+01 4.072226e+00
    endloop
  endfacet
  facet normal -1.991860e-01 -9.799617e-01 0.000000e+00
    outer loop
      vertex   -1.011426e+02 9.519072e+01 2.872226e+00
      vertex   -1.008152e+02 9.512417e+01 4.072226e+00
      vertex   -1.011426e+02 9.519072e+01 4.072226e+00
    endloop
  endfacet
  facet normal -2.641954e-01 -9.644692e-01 0.000000e+00
    outer loop
      vertex   -1.014649e+02 9.527900e+01 2.872226e+00
      vertex   -1.011426e+02 9.519072e+01 4.072226e+00
      vertex   -1.014649e+02 9.527900e+01 4.072226e+00
    endloop
  endfacet
  facet normal -3.280249e-01 -9.446691e-01 1.119624e-14
    outer loop
      vertex   -1.017806e+02 9.538861e+01 2.872226e+00
      vertex   -1.014649e+02 9.527900e+01 4.072226e+00
      vertex   -1.017806e+02 9.538861e+01 4.072226e+00
    endloop
  endfacet
  facet normal -3.903893e-01 -9.206499e-01 0.000000e+00
    outer loop
      vertex   -1.020882e+02 9.551906e+01 2.872226e+00
      vertex   -1.017806e+02 9.538861e+01 4.072226e+00
      vertex   -1.020882e+02 9.551906e+01 4.072226e+00
    endloop
  endfacet
  facet normal -4.510101e-01 -8.925188e-01 0.000000e+00
    outer loop
      vertex   -1.023864e+02 9.566977e+01 2.872226e+00
      vertex   -1.020882e+02 9.551906e+01 4.072226e+00
      vertex   -1.023864e+02 9.566977e+01 4.072226e+00
    endloop
  endfacet
  facet normal -5.096166e-01 -8.604016e-01 0.000000e+00
    outer loop
      vertex   -1.026739e+02 9.584006e+01 2.872226e+00
      vertex   -1.023864e+02 9.566977e+01 4.072226e+00
      vertex   -1.026739e+02 9.584006e+01 4.072226e+00
    endloop
  endfacet
  facet normal -5.659471e-01 -8.244416e-01 0.000000e+00
    outer loop
      vertex   -1.029494e+02 9.602917e+01 2.872226e+00
      vertex   -1.026739e+02 9.584006e+01 4.072226e+00
      vertex   -1.029494e+02 9.602917e+01 4.072226e+00
    endloop
  endfacet
  facet normal -6.197499e-01 -7.847994e-01 0.000000e+00
    outer loop
      vertex   -1.032117e+02 9.623626e+01 2.872226e+00
      vertex   -1.029494e+02 9.602917e+01 4.072226e+00
      vertex   -1.032117e+02 9.623626e+01 4.072226e+00
    endloop
  endfacet
  facet normal -6.707847e-01 -7.416521e-01 -7.942926e-15
    outer loop
      vertex   -1.034595e+02 9.646040e+01 2.872226e+00
      vertex   -1.032117e+02 9.623626e+01 4.072226e+00
      vertex   -1.034595e+02 9.646040e+01 4.072226e+00
    endloop
  endfacet
  facet normal -7.188237e-01 -6.951924e-01 0.000000e+00
    outer loop
      vertex   -1.036918e+02 9.670059e+01 2.872226e+00
      vertex   -1.034595e+02 9.646040e+01 4.072226e+00
      vertex   -1.036918e+02 9.670059e+01 4.072226e+00
    endloop
  endfacet
  facet normal -7.636522e-01 -6.456279e-01 0.000000e+00
    outer loop
      vertex   -1.039075e+02 9.695577e+01 2.872226e+00
      vertex   -1.036918e+02 9.670059e+01 4.072226e+00
      vertex   -1.039075e+02 9.695577e+01 4.072226e+00
    endloop
  endfacet
  facet normal -8.050701e-01 -5.931797e-01 0.000000e+00
    outer loop
      vertex   -1.041057e+02 9.722478e+01 2.872226e+00
      vertex   -1.039075e+02 9.695577e+01 4.072226e+00
      vertex   -1.041057e+02 9.722478e+01 4.072226e+00
    endloop
  endfacet
  facet normal -8.428923e-01 -5.380824e-01 0.000000e+00
    outer loop
      vertex   -1.042855e+02 9.750643e+01 2.872226e+00
      vertex   -1.041057e+02 9.722478e+01 4.072226e+00
      vertex   -1.042855e+02 9.750643e+01 4.072226e+00
    endloop
  endfacet
  facet normal -8.769499e-01 -4.805818e-01 0.000000e+00
    outer loop
      vertex   -1.044461e+02 9.779947e+01 2.872226e+00
      vertex   -1.042855e+02 9.750643e+01 4.072226e+00
      vertex   -1.044461e+02 9.779947e+01 4.072226e+00
    endloop
  endfacet
  facet normal -9.070909e-01 -4.209348e-01 0.000000e+00
    outer loop
      vertex   -1.045868e+02 9.810257e+01 2.872226e+00
      vertex   -1.044461e+02 9.779947e+01 4.072226e+00
      vertex   -1.045868e+02 9.810257e+01 4.072226e+00
    endloop
  endfacet
  facet normal -9.331806e-01 -3.594078e-01 0.000000e+00
    outer loop
      vertex   -1.047069e+02 9.841439e+01 2.872226e+00
      vertex   -1.045868e+02 9.810257e+01 4.072226e+00
      vertex   -1.047069e+02 9.841439e+01 4.072226e+00
    endloop
  endfacet
  facet normal -9.551025e-01 -2.962756e-01 0.000000e+00
    outer loop
      vertex   -1.048059e+02 9.873354e+01 2.872226e+00
      vertex   -1.047069e+02 9.841439e+01 4.072226e+00
      vertex   -1.048059e+02 9.873354e+01 4.072226e+00
    endloop
  endfacet
  facet normal -9.727587e-01 -2.318202e-01 0.000000e+00
    outer loop
      vertex   -1.048833e+02 9.905859e+01 2.872226e+00
      vertex   -1.048059e+02 9.873354e+01 4.072226e+00
      vertex   -1.048833e+02 9.905859e+01 4.072226e+00
    endloop
  endfacet
  facet normal -9.860703e-01 -1.663294e-01 0.000000e+00
    outer loop
      vertex   -1.049389e+02 9.938808e+01 2.872226e+00
      vertex   -1.048833e+02 9.905859e+01 4.072226e+00
      vertex   -1.049389e+02 9.938808e+01 4.072226e+00
    endloop
  endfacet
  facet normal -9.949778e-01 -1.000957e-01 0.000000e+00
    outer loop
      vertex   -1.049724e+02 9.972055e+01 2.872226e+00
      vertex   -1.049389e+02 9.938808e+01 4.072226e+00
      vertex   -1.049724e+02 9.972055e+01 4.072226e+00
    endloop
  endfacet
  facet normal -9.994416e-01 -3.341498e-02 0.000000e+00
    outer loop
      vertex   -1.049835e+02 1.000545e+02 2.872226e+00
      vertex   -1.049724e+02 9.972055e+01 4.072226e+00
      vertex   -1.049835e+02 1.000545e+02 4.072226e+00
    endloop
  endfacet
  facet normal -9.994416e-01 3.341498e-02 0.000000e+00
    outer loop
      vertex   -1.049724e+02 1.003885e+02 2.872226e+00
      vertex   -1.049835e+02 1.000545e+02 4.072226e+00
      vertex   -1.049724e+02 1.003885e+02 4.072226e+00
    endloop
  endfacet
  facet normal -9.949778e-01 1.000957e-01 0.000000e+00
    outer loop
      vertex   -1.049389e+02 1.007210e+02 2.872226e+00
      vertex   -1.049724e+02 1.003885e+02 4.072226e+00
      vertex   -1.049389e+02 1.007210e+02 4.072226e+00
    endloop
  endfacet
  facet normal -9.860703e-01 1.663294e-01 0.000000e+00
    outer loop
      vertex   -1.048833e+02 1.010504e+02 2.872226e+00
      vertex   -1.049389e+02 1.007210e+02 4.072226e+00
      vertex   -1.048833e+02 1.010504e+02 4.072226e+00
    endloop
  endfacet
  facet normal -9.727587e-01 2.318202e-01 0.000000e+00
    outer loop
      vertex   -1.048059e+02 1.013755e+02 2.872226e+00
      vertex   -1.048833e+02 1.010504e+02 4.072226e+00
      vertex   -1.048059e+02 1.013755e+02 4.072226e+00
    endloop
  endfacet
  facet normal -9.551025e-01 2.962756e-01 0.000000e+00
    outer loop
      vertex   -1.047069e+02 1.016946e+02 2.872226e+00
      vertex   -1.048059e+02 1.013755e+02 4.072226e+00
      vertex   -1.047069e+02 1.016946e+02 4.072226e+00
    endloop
  endfacet
  facet normal -9.331806e-01 3.594078e-01 0.000000e+00
    outer loop
      vertex   -1.045868e+02 1.020065e+02 2.872226e+00
      vertex   -1.047069e+02 1.016946e+02 4.072226e+00
      vertex   -1.045868e+02 1.020065e+02 4.072226e+00
    endloop
  endfacet
  facet normal -9.070909e-01 4.209348e-01 0.000000e+00
    outer loop
      vertex   -1.044461e+02 1.023096e+02 2.872226e+00
      vertex   -1.045868e+02 1.020065e+02 4.072226e+00
      vertex   -1.044461e+02 1.023096e+02 4.072226e+00
    endloop
  endfacet
  facet normal -8.769499e-01 4.805818e-01 0.000000e+00
    outer loop
      vertex   -1.042855e+02 1.026026e+02 2.872226e+00
      vertex   -1.044461e+02 1.023096e+02 4.072226e+00
      vertex   -1.042855e+02 1.026026e+02 4.072226e+00
    endloop
  endfacet
  facet normal -8.428923e-01 5.380824e-01 0.000000e+00
    outer loop
      vertex   -1.041057e+02 1.028843e+02 2.872226e+00
      vertex   -1.042855e+02 1.026026e+02 4.072226e+00
      vertex   -1.041057e+02 1.028843e+02 4.072226e+00
    endloop
  endfacet
  facet normal -8.050701e-01 5.931797e-01 0.000000e+00
    outer loop
      vertex   -1.039075e+02 1.031533e+02 2.872226e+00
      vertex   -1.041057e+02 1.028843e+02 4.072226e+00
      vertex   -1.039075e+02 1.031533e+02 4.072226e+00
    endloop
  endfacet
  facet normal -7.636522e-01 6.456279e-01 0.000000e+00
    outer loop
      vertex   -1.036918e+02 1.034084e+02 2.872226e+00
      vertex   -1.039075e+02 1.031533e+02 4.072226e+00
      vertex   -1.036918e+02 1.034084e+02 4.072226e+00
    endloop
  endfacet
  facet normal -7.188237e-01 6.951924e-01 8.513986e-15
    outer loop
      vertex   -1.034595e+02 1.036486e+02 2.872226e+00
      vertex   -1.036918e+02 1.034084e+02 4.072226e+00
      vertex   -1.034595e+02 1.036486e+02 4.072226e+00
    endloop
  endfacet
  facet normal -6.707847e-01 7.416521e-01 0.000000e+00
    outer loop
      vertex   -1.032117e+02 1.038728e+02 2.872226e+00
      vertex   -1.034595e+02 1.036486e+02 4.072226e+00
      vertex   -1.032117e+02 1.038728e+02 4.072226e+00
    endloop
  endfacet
  facet normal -6.197499e-01 7.847994e-01 0.000000e+00
    outer loop
      vertex   -1.029494e+02 1.040799e+02 2.872226e+00
      vertex   -1.032117e+02 1.038728e+02 4.072226e+00
      vertex   -1.029494e+02 1.040799e+02 4.072226e+00
    endloop
  endfacet
  facet normal -5.659471e-01 8.244416e-01 0.000000e+00
    outer loop
      vertex   -1.026739e+02 1.042690e+02 2.872226e+00
      vertex   -1.029494e+02 1.040799e+02 4.072226e+00
      vertex   -1.026739e+02 1.042690e+02 4.072226e+00
    endloop
  endfacet
  facet normal -5.096166e-01 8.604016e-01 0.000000e+00
    outer loop
      vertex   -1.023864e+02 1.044393e+02 2.872226e+00
      vertex   -1.026739e+02 1.042690e+02 4.072226e+00
      vertex   -1.023864e+02 1.044393e+02 4.072226e+00
    endloop
  endfacet
  facet normal -4.510101e-01 8.925188e-01 0.000000e+00
    outer loop
      vertex   -1.020882e+02 1.045900e+02 2.872226e+00
      vertex   -1.023864e+02 1.044393e+02 4.072226e+00
      vertex   -1.020882e+02 1.045900e+02 4.072226e+00
    endloop
  endfacet
  facet normal -3.903893e-01 9.206499e-01 -1.090206e-14
    outer loop
      vertex   -1.017806e+02 1.047204e+02 2.872226e+00
      vertex   -1.020882e+02 1.045900e+02 4.072226e+00
      vertex   -1.017806e+02 1.047204e+02 4.072226e+00
    endloop
  endfacet
  facet normal -3.280249e-01 9.446691e-01 0.000000e+00
    outer loop
      vertex   -1.014649e+02 1.048300e+02 2.872226e+00
      vertex   -1.017806e+02 1.047204e+02 4.072226e+00
      vertex   -1.014649e+02 1.048300e+02 4.072226e+00
    endloop
  endfacet
  facet normal -2.641954e-01 9.644692e-01 0.000000e+00
    outer loop
      vertex   -1.011426e+02 1.049183e+02 2.872226e+00
      vertex   -1.014649e+02 1.048300e+02 4.072226e+00
      vertex   -1.011426e+02 1.049183e+02 4.072226e+00
    endloop
  endfacet
  facet normal -1.991860e-01 9.799617e-01 0.000000e+00
    outer loop
      vertex   -1.008152e+02 1.049849e+02 2.872226e+00
      vertex   -1.011426e+02 1.049183e+02 4.072226e+00
      vertex   -1.008152e+02 1.049849e+02 4.072226e+00
    endloop
  endfacet
  facet normal -1.332870e-01 9.910775e-01 0.000000e+00
    outer loop
      vertex   -1.004840e+02 1.050294e+02 2.872226e+00
      vertex   -1.008152e+02 1.049849e+02 4.072226e+00
      vertex   -1.004840e+02 1.050294e+02 4.072226e+00
    endloop
  endfacet
  facet normal -6.679263e-02 9.977669e-01 0.000000e+00
    outer loop
      vertex   -1.001506e+02 1.050517e+02 2.872226e+00
      vertex   -1.004840e+02 1.050294e+02 4.072226e+00
      vertex   -1.001506e+02 1.050517e+02 4.072226e+00
    endloop
  endfacet
  facet normal 0.000000e+00 1.000000e+00 -0.000000e+00
    outer loop
      vertex   -9.981644e+01 1.050517e+02 2.872226e+00
      vertex   -1.001506e+02 1.050517e+02 4.072226e+00
      vertex   -9.981644e+01 1.050517e+02 4.072226e+00
    endloop
  endfacet
  facet normal 6.679263e-02 9.977669e-01 0.000000e+00
    outer loop
      vertex   -9.948304e+01 1.050294e+02 2.872226e+00
      vertex   -9.981644e+01 1.050517e+02 4.072226e+00
      vertex   -9.948304e+01 1.050294e+02 4.072226e+00
    endloop
  endfacet
  facet normal 1.332870e-01 9.910775e-01 0.000000e+00
    outer loop
      vertex   -9.915187e+01 1.049849e+02 2.872226e+00
      vertex   -9.948304e+01 1.050294e+02 4.072226e+00
      vertex   -9.915187e+01 1.049849e+02 4.072226e+00
    endloop
  endfacet
  facet normal 1.991860e-01 9.799617e-01 0.000000e+00
    outer loop
      vertex   -9.882442e+01 1.049183e+02 2.872226e+00
      vertex   -9.915187e+01 1.049849e+02 4.072226e+00
      vertex   -9.882442e+01 1.049183e+02 4.072226e+00
    endloop
  endfacet
  facet normal 2.641954e-01 9.644692e-01 0.000000e+00
    outer loop
      vertex   -9.850214e+01 1.048300e+02 2.872226e+00
      vertex   -9.882442e+01 1.049183e+02 4.072226e+00
      vertex   -9.850214e+01 1.048300e+02 4.072226e+00
    endloop
  endfacet
  facet normal 3.280249e-01 9.446691e-01 0.000000e+00
    outer loop
      vertex   -9.818648e+01 1.047204e+02 2.872226e+00
      vertex   -9.850214e+01 1.048300e+02 4.072226e+00
      vertex   -9.818648e+01 1.047204e+02 4.072226e+00
    endloop
  endfacet
  facet normal 3.903893e-01 9.206499e-01 0.000000e+00
    outer loop
      vertex   -9.787885e+01 1.045900e+02 2.872226e+00
      vertex   -9.818648e+01 1.047204e+02 4.072226e+00
      vertex   -9.787885e+01 1.045900e+02 4.072226e+00
    endloop
  endfacet
  facet normal 4.510101e-01 8.925188e-01 0.000000e+00
    outer loop
      vertex   -9.758061e+01 1.044393e+02 2.872226e+00
      vertex   -9.787885e+01 1.045900e+02 4.072226e+00
      vertex   -9.758061e+01 1.044393e+02 4.072226e+00
    endloop
  endfacet
  facet normal 5.096166e-01 8.604016e-01 0.000000e+00
    outer loop
      vertex   -9.729311e+01 1.042690e+02 2.872226e+00
      vertex   -9.758061e+01 1.044393e+02 4.072226e+00
      vertex   -9.729311e+01 1.042690e+02 4.072226e+00
    endloop
  endfacet
  facet normal 5.659471e-01 8.244416e-01 0.000000e+00
    outer loop
      vertex   -9.701762e+01 1.040799e+02 2.872226e+00
      vertex   -9.729311e+01 1.042690e+02 4.072226e+00
      vertex   -9.701762e+01 1.040799e+02 4.072226e+00
    endloop
  endfacet
  facet normal 6.197499e-01 7.847994e-01 0.000000e+00
    outer loop
      vertex   -9.675538e+01 1.038728e+02 2.872226e+00
      vertex   -9.701762e+01 1.040799e+02 4.072226e+00
      vertex   -9.675538e+01 1.038728e+02 4.072226e+00
    endloop
  endfacet
  facet normal 6.707847e-01 7.416521e-01 0.000000e+00
    outer loop
      vertex   -9.650756e+01 1.036486e+02 2.872226e+00
      vertex   -9.675538e+01 1.038728e+02 4.072226e+00
      vertex   -9.650756e+01 1.036486e+02 4.072226e+00
    endloop
  endfacet
  facet normal 7.188237e-01 6.951924e-01 0.000000e+00
    outer loop
      vertex   -9.627526e+01 1.034084e+02 2.872226e+00
      vertex   -9.650756e+01 1.036486e+02 4.072226e+00
      vertex   -9.627526e+01 1.034084e+02 4.072226e+00
    endloop
  endfacet
  facet normal 7.636522e-01 6.456279e-01 0.000000e+00
    outer loop
      vertex   -9.605952e+01 1.031533e+02 2.872226e+00
      vertex   -9.627526e+01 1.034084e+02 4.072226e+00
      vertex   -9.605952e+01 1.031533e+02 4.072226e+00
    endloop
  endfacet
  facet normal 8.050701e-01 5.931797e-01 0.000000e+00
    outer loop
      vertex   -9.586131e+01 1.028843e+02 2.872226e+00
      vertex   -9.605952e+01 1.031533e+02 4.072226e+00
      vertex   -9.586131e+01 1.028843e+02 4.072226e+00
    endloop
  endfacet
  facet normal 8.428923e-01 5.380824e-01 0.000000e+00
    outer loop
      vertex   -9.568151e+01 1.026026e+02 2.872226e+00
      vertex   -9.586131e+01 1.028843e+02 4.072226e+00
      vertex   -9.568151e+01 1.026026e+02 4.072226e+00
    endloop
  endfacet
  facet normal 8.769499e-01 4.805818e-01 0.000000e+00
    outer loop
      vertex   -9.552093e+01 1.023096e+02 2.872226e+00
      vertex   -9.568151e+01 1.026026e+02 4.072226e+00
      vertex   -9.552093e+01 1.023096e+02 4.072226e+00
    endloop
  endfacet
  facet normal 9.070909e-01 4.209348e-01 0.000000e+00
    outer loop
      vertex   -9.538027e+01 1.020065e+02 2.872226e+00
      vertex   -9.552093e+01 1.023096e+02 4.072226e+00
      vertex   -9.538027e+01 1.020065e+02 4.072226e+00
    endloop
  endfacet
  facet normal 9.331806e-01 3.594078e-01 0.000000e+00
    outer loop
      vertex   -9.526017e+01 1.016946e+02 2.872226e+00
      vertex   -9.538027e+01 1.020065e+02 4.072226e+00
      vertex   -9.526017e+01 1.016946e+02 4.072226e+00
    endloop
  endfacet
  facet normal 9.551025e-01 2.962756e-01 0.000000e+00
    outer loop
      vertex   -9.516117e+01 1.013755e+02 2.872226e+00
      vertex   -9.526017e+01 1.016946e+02 4.072226e+00
      vertex   -9.516117e+01 1.013755e+02 4.072226e+00
    endloop
  endfacet
  facet normal 9.727587e-01 2.318202e-01 0.000000e+00
    outer loop
      vertex   -9.508371e+01 1.010504e+02 2.872226e+00
      vertex   -9.516117e+01 1.013755e+02 4.072226e+00
      vertex   -9.508371e+01 1.010504e+02 4.072226e+00
    endloop
  endfacet
  facet normal 9.860703e-01 1.663294e-01 0.000000e+00
    outer loop
      vertex   -9.502813e+01 1.007210e+02 2.872226e+00
      vertex   -9.508371e+01 1.010504e+02 4.072226e+00
      vertex   -9.502813e+01 1.007210e+02 4.072226e+00
    endloop
  endfacet
  facet normal 9.949778e-01 1.000957e-01 0.000000e+00
    outer loop
      vertex   -9.499469e+01 1.003885e+02 2.872226e+00
      vertex   -9.502813e+01 1.007210e+02 4.072226e+00
      vertex   -9.499469e+01 1.003885e+02 4.072226e+00
    endloop
  endfacet
  facet normal 9.994416e-01 3.341498e-02 0.000000e+00
    outer loop
      vertex   -9.498352e+01 1.000545e+02 2.872226e+00
      vertex   -9.499469e+01 1.003885e+02 4.072226e+00
      vertex   -9.498352e+01 1.000545e+02 4.072226e+00
    endloop
  endfacet
  facet normal 9.994416e-01 -3.341498e-02 0.000000e+00
    outer loop
      vertex   -9.499469e+01 9.972055e+01 2.872226e+00
      vertex   -9.498352e+01 1.000545e+02 2.872226e+00
      vertex   -9.498352e+01 1.000545e+02 4.072226e+00
    endloop
  endfacet
  facet normal 9.727587e-01 -2.318202e-01 0.000000e+00
    outer loop
      vertex   -9.508371e+01 9.905859e+01 2.872226e+00
      vertex   -9.508371e+01 9.905859e+01 4.072226e+00
      vertex   -9.516117e+01 9.873354e+01 2.872226e+00
    endloop
  endfacet
  facet normal 9.551025e-01 -2.962756e-01 0.000000e+00
    outer loop
      vertex   -9.516117e+01 9.873354e+01 2.872226e+00
      vertex   -9.516117e+01 9.873354e+01 4.072226e+00
      vertex   -9.526017e+01 9.841439e+01 2.872226e+00
    endloop
  endfacet
  facet normal 9.331806e-01 -3.594078e-01 0.000000e+00
    outer loop
      vertex   -9.526017e+01 9.841439e+01 2.872226e+00
      vertex   -9.526017e+01 9.841439e+01 4.072226e+00
      vertex   -9.538027e+01 9.810257e+01 2.872226e+00
    endloop
  endfacet
  facet normal 9.070909e-01 -4.209348e-01 0.000000e+00
    outer loop
      vertex   -9.538027e+01 9.810257e+01 2.872226e+00
      vertex   -9.538027e+01 9.810257e+01 4.072226e+00
      vertex   -9.552093e+01 9.779947e+01 2.872226e+00
    endloop
  endfacet
  facet normal 8.769499e-01 -4.805818e-01 0.000000e+00
    outer loop
      vertex   -9.552093e+01 9.779947e+01 2.872226e+00
      vertex   -9.552093e+01 9.779947e+01 4.072226e+00
      vertex   -9.568151e+01 9.750643e+01 2.872226e+00
    endloop
  endfacet
  facet normal 8.428923e-01 -5.380824e-01 0.000000e+00
    outer loop
      vertex   -9.568151e+01 9.750643e+01 2.872226e+00
      vertex   -9.568151e+01 9.750643e+01 4.072226e+00
      vertex   -9.586131e+01 9.722478e+01 2.872226e+00
    endloop
  endfacet
  facet normal 8.050701e-01 -5.931797e-01 0.000000e+00
    outer loop
      vertex   -9.586131e+01 9.722478e+01 2.872226e+00
      vertex   -9.586131e+01 9.722478e+01 4.072226e+00
      vertex   -9.605952e+01 9.695577e+01 2.872226e+00
    endloop
  endfacet
  facet normal 7.636522e-01 -6.456279e-01 0.000000e+00
    outer loop
      vertex   -9.605952e+01 9.695577e+01 2.872226e+00
      vertex   -9.605952e+01 9.695577e+01 4.072226e+00
      vertex   -9.627526e+01 9.670059e+01 2.872226e+00
    endloop
  endfacet
  facet normal 7.188237e-01 -6.951924e-01 0.000000e+00
    outer loop
      vertex   -9.627526e+01 9.670059e+01 2.872226e+00
      vertex   -9.627526e+01 9.670059e+01 4.072226e+00
      vertex   -9.650756e+01 9.646040e+01 2.872226e+00
    endloop
  endfacet
  facet normal 6.707847e-01 -7.416521e-01 0.000000e+00
    outer loop
      vertex   -9.650756e+01 9.646040e+01 2.872226e+00
      vertex   -9.650756e+01 9.646040e+01 4.072226e+00
      vertex   -9.675538e+01 9.623626e+01 2.872226e+00
    endloop
  endfacet
  facet normal 6.197499e-01 -7.847994e-01 0.000000e+00
    outer loop
      vertex   -9.675538e+01 9.623626e+01 2.872226e+00
      vertex   -9.675538e+01 9.623626e+01 4.072226e+00
      vertex   -9.701762e+01 9.602917e+01 2.872226e+00
    endloop
  endfacet
  facet normal 5.659471e-01 -8.244416e-01 0.000000e+00
    outer loop
      vertex   -9.701762e+01 9.602917e+01 2.872226e+00
      vertex   -9.701762e+01 9.602917e+01 4.072226e+00
      vertex   -9.729311e+01 9.584006e+01 2.872226e+00
    endloop
  endfacet
  facet normal 5.096166e-01 -8.604016e-01 0.000000e+00
    outer loop
      vertex   -9.729311e+01 9.584006e+01 2.872226e+00
      vertex   -9.729311e+01 9.584006e+01 4.072226e+00
      vertex   -9.758061e+01 9.566977e+01 2.872226e+00
    endloop
  endfacet
  facet normal 4.510101e-01 -8.925188e-01 0.000000e+00
    outer loop
      vertex   -9.758061e+01 9.566977e+01 2.872226e+00
      vertex   -9.758061e+01 9.566977e+01 4.072226e+00
      vertex   -9.787885e+01 9.551906e+01 2.872226e+00
    endloop
  endfacet
  facet normal 3.903893e-01 -9.206499e-01 0.000000e+00
    outer loop
      vertex   -9.787885e+01 9.551906e+01 2.872226e+00
      vertex   -9.787885e+01 9.551906e+01 4.072226e+00
      vertex   -9.818648e+01 9.538861e+01 2.872226e+00
    endloop
  endfacet
  facet normal 3.280249e-01 -9.446691e-01 0.000000e+00
    outer loop
      vertex   -9.818648e+01 9.538861e+01 2.872226e+00
      vertex   -9.818648e+01 9.538861e+01 4.072226e+00
      vertex   -9.850214e+01 9.527900e+01 2.872226e+00
    endloop
  endfacet
  facet normal 2.641954e-01 -9.644692e-01 0.000000e+00
    outer loop
      vertex   -9.850214e+01 9.527900e+01 2.872226e+00
      vertex   -9.850214e+01 9.527900e+01 4.072226e+00
      vertex   -9.882442e+01 9.519072e+01 2.872226e+00
    endloop
  endfacet
  facet normal 1.991860e-01 -9.799617e-01 0.000000e+00
    outer loop
      vertex   -9.882442e+01 9.519072e+01 2.872226e+00
      vertex   -9.882442e+01 9.519072e+01 4.072226e+00
      vertex   -9.915187e+01 9.512417e+01 2.872226e+00
    endloop
  endfacet
  facet normal 1.332870e-01 -9.910775e-01 0.000000e+00
    outer loop
      vertex   -9.915187e+01 9.512417e+01 2.872226e+00
      vertex   -9.915187e+01 9.512417e+01 4.072226e+00
      vertex   -9.948304e+01 9.507963e+01 2.872226e+00
    endloop
  endfacet
  facet normal 6.679263e-02 -9.977669e-01 0.000000e+00
    outer loop
      vertex   -9.948304e+01 9.507963e+01 2.872226e+00
      vertex   -9.948304e+01 9.507963e+01 4.072226e+00
      vertex   -9.981644e+01 9.505731e+01 2.872226e+00
    endloop
  endfacet
  facet normal -0.000000e+00 -1.000000e+00 0.000000e+00
    outer loop
      vertex   -9.981644e+01 9.505731e+01 2.872226e+00
      vertex   -9.981644e+01 9.505731e+01 4.072226e+00
      vertex   -1.001506e+02 9.505731e+01 2.872226e+00
    endloop
  endfacet
  facet normal -6.679263e-02 -9.977669e-01 0.000000e+00
    outer loop
      vertex   -1.001506e+02 9.505731e+01 2.872226e+00
      vertex   -1.001506e+02 9.505731e+01 4.072226e+00
      vertex   -1.004840e+02 9.507963e+01 2.872226e+00
    endloop
  endfacet
  facet normal -1.332870e-01 -9.910775e-01 0.000000e+00
    outer loop
      vertex   -1.004840e+02 9.507963e+01 2.872226e+00
      vertex   -1.004840e+02 9.507963e+01 4.072226e+00
      vertex   -1.008152e+02 9.512417e+01 2.872226e+00
    endloop
  endfacet
  facet normal -1.991860e-01 -9.799617e-01 0.000000e+00
    outer loop
      vertex   -1.008152e+02 9.512417e+01 2.872226e+00
      vertex   -1.008152e+02 9.512417e+01 4.072226e+00
      vertex   -1.011426e+02 9.519072e+01 2.872226e+00
    endloop
  endfacet
  facet normal -2.641954e-01 -9.644692e-01 0.000000e+00
    outer loop
      vertex   -1.011426e+02 9.519072e+01 2.872226e+00
      vertex   -1.011426e+02 9.519072e+01 4.072226e+00
      vertex   -1.014649e+02 9.527900e+01 2.872226e+00
    endloop
  endfacet
  facet normal -3.280249e-01 -9.446691e-01 0.000000e+00
    outer loop
      vertex   -1.014649e+02 9.527900e+01 2.872226e+00
      vertex   -1.014649e+02 9.527900e+01 4.072226e+00
      vertex   -1.017806e+02 9.538861e+01 2.872226e+00
    endloop
  endfacet
  facet normal -3.903893e-01 -9.206499e-01 1.090268e-14
    outer loop
      vertex   -1.017806e+02 9.538861e+01 2.872226e+00
      vertex   -1.017806e+02 9.538861e+01 4.072226e+00
      vertex   -1.020882e+02 9.551906e+01 2.872226e+00
    endloop
  endfacet
  facet normal -4.510101e-01 -8.925188e-01 0.000000e+00
    outer loop
      vertex   -1.020882e+02 9.551906e+01 2.872226e+00
      vertex   -1.020882e+02 9.551906e+01 4.072226e+00
      vertex   -1.023864e+02 9.566977e+01 2.872226e+00
    endloop
  endfacet
  facet normal -5.096166e-01 -8.604016e-01 0.000000e+00
    outer loop
      vertex   -1.023864e+02 9.566977e+01 2.872226e+00
      vertex   -1.023864e+02 9.566977e+01 4.072226e+00
      vertex   -1.026739e+02 9.584006e+01 2.872226e+00
    endloop
  endfacet
  facet normal -5.659471e-01 -8.244416e-01 0.000000e+00
    outer loop
      vertex   -1.026739e+02 9.584006e+01 2.872226e+00
      vertex   -1.026739e+02 9.584006e+01 4.072226e+00
      vertex   -1.029494e+02 9.602917e+01 2.872226e+00
    endloop
  endfacet
  facet normal -6.197499e-01 -7.847994e-01 0.000000e+00
    outer loop
      vertex   -1.029494e+02 9.602917e+01 2.872226e+00
      vertex   -1.029494e+02 9.602917e+01 4.072226e+00
      vertex   -1.032117e+02 9.623626e+01 2.872226e+00
    endloop
  endfacet
  facet normal -6.707847e-01 -7.416521e-01 0.000000e+00
    outer loop
      vertex   -1.032117e+02 9.623626e+01 2.872226e+00
      vertex   -1.032117e+02 9.623626e+01 4.072226e+00
      vertex   -1.034595e+02 9.646040e+01 2.872226e+00
    endloop
  endfacet
  facet normal -7.188237e-01 -6.951924e-01 -8.512582e-15
    outer loop
      vertex   -1.034595e+02 9.646040e+01 2.872226e+00
      vertex   -1.034595e+02 9.646040e+01 4.072226e+00
      vertex   -1.036918e+02 9.670059e+01 2.872226e+00
    endloop
  endfacet
  facet normal -7.636522e-01 -6.456279e-01 0.000000e+00
    outer loop
      vertex   -1.036918e+02 9.670059e+01 2.872226e+00
      vertex   -1.036918e+02 9.670059e+01 4.072226e+00
      vertex   -1.039075e+02 9.695577e+01 2.872226e+00
    endloop
  endfacet
  facet normal -8.050701e-01 -5.931797e-01 0.000000e+00
    outer loop
      vertex   -1.039075e+02 9.695577e+01 2.872226e+00
      vertex   -1.039075e+02 9.695577e+01 4.072226e+00
      vertex   -1.041057e+02 9.722478e+01 2.872226e+00
    endloop
  endfacet
  facet normal -8.428923e-01 -5.380824e-01 0.000000e+00
    outer loop
      vertex   -1.041057e+02 9.722478e+01 2.872226e+00
      vertex   -1.041057e+02 9.722478e+01 4.072226e+00
      vertex   -1.042855e+02 9.750643e+01 2.872226e+00
    endloop
  endfacet
  facet normal -8.769499e-01 -4.805818e-01 0.000000e+00
    outer loop
      vertex   -1.042855e+02 9.750643e+01 2.872226e+00
      vertex   -1.042855e+02 9.750643e+01 4.072226e+00
      vertex   -1.044461e+02 9.779947e+01 2.872226e+00
    endloop
  endfacet
  facet normal -9.070909e-01 -4.209348e-01 0.000000e+00
    outer loop
      vertex   -1.044461e+02 9.779947e+01 2.872226e+00
      vertex   -1.044461e+02 9.779947e+01 4.072226e+00
      vertex   -1.045868e+02 9.810257e+01 2.872226e+00
    endloop
  endfacet
  facet normal -9.331806e-01 -3.594078e-01 0.000000e+00
    outer loop
      vertex   -1.045868e+02 9.810257e+01 2.872226e+00
      vertex   -1.045868e+02 9.810257e+01 4.072226e+00
      vertex   -1.047069e+02 9.841439e+01 2.872226e+00
    endloop
  endfacet
  facet normal -9.551025e-01 -2.962756e-01 0.000000e+00
    outer loop
      vertex   -1.047069e+02 9.841439e+01 2.872226e+00
      vertex   -1.047069e+02 9.841439e+01 4.072226e+00
      vertex   -1.048059e+02 9.873354e+01 2.872226e+00
    endloop
  endfacet
  facet normal -9.727587e-01 -2.318202e-01 0.000000e+00
    outer loop
      vertex   -1.048059e+02 9.873354e+01 2.872226e+00
      vertex   -1.048059e+02 9.873354e+01 4.072226e+00
      vertex   -1.048833e+02 9.905859e+01 2.872226e+00
    endloop
  endfacet
  facet normal -9.860703e-01 -1.663294e-01 0.000000e+00
    outer loop
      vertex   -1.048833e+02 9.905859e+01 2.872226e+00
      vertex   -1.048833e+02 9.905859e+01 4.072226e+00
      vertex   -1.049389e+02 9.938808e+01 2.872226e+00
    endloop
  endfacet
  facet normal -9.949778e-01 -1.000957e-01 0.000000e+00
    outer loop
      vertex   -1.049389e+02 9.938808e+01 2.872226e+00
      vertex   -1.049389e+02 9.938808e+01 4.072226e+00
      vertex   -1.049724e+02 9.972055e+01 2.872226e+00
    endloop
  endfacet
  facet normal -9.994416e-01 -3.341498e-02 0.000000e+00
    outer loop
      vertex   -1.049724e+02 9.972055e+01 2.872226e+00
      vertex   -1.049724e+02 9.972055e+01 4.072226e+00
      vertex   -1.049835e+02 1.000545e+02 2.872226e+00
    endloop
  endfacet
  facet normal -9.994416e-01 3.341498e-02 0.000000e+00
    outer loop
      vertex   -1.049835e+02 1.000545e+02 2.872226e+00
      vertex   -1.049835e+02 1.000545e+02 4.072226e+00
      vertex   -1.049724e+02 1.003885e+02 2.872226e+00
    endloop
  endfacet
  facet normal -9.949778e-01 1.000957e-01 0.000000e+00
    outer loop
      vertex   -1.049724e+02 1.003885e+02 2.872226e+00
      vertex   -1.049724e+02 1.003885e+02 4.072226e+00
      vertex   -1.049389e+02 1.007210e+02 2.872226e+00
    endloop
  endfacet
  facet normal -9.860703e-01 1.663294e-01 0.000000e+00
    outer loop
      vertex   -1.049389e+02 1.007210e+02 2.872226e+00
      vertex   -1.049389e+02 1.007210e+02 4.072226e+00
      vertex   -1.048833e+02 1.010504e+02 2.872226e+00
    endloop
  endfacet
  facet normal -9.727587e-01 2.318202e-01 0.000000e+00
    outer loop
      vertex   -1.048833e+02 1.010504e+02 2.872226e+00
      vertex   -1.048833e+02 1.010504e+02 4.072226e+00
      vertex   -1.048059e+02 1.013755e+02 2.872226e+00
    endloop
  endfacet
  facet normal -9.551025e-01 2.962756e-01 0.000000e+00
    outer loop
      vertex   -1.048059e+02 1.013755e+02 2.872226e+00
      vertex   -1.048059e+02 1.013755e+02 4.072226e+00
      vertex   -1.047069e+02 1.016946e+02 2.872226e+00
    endloop
  endfacet
  facet normal -9.331806e-01 3.594078e-01 0.000000e+00
    outer loop
      vertex   -1.047069e+02 1.016946e+02 2.872226e+00
      vertex   -1.047069e+02 1.016946e+02 4.072226e+00
      vertex   -1.045868e+02 1.020065e+02 2.872226e+00
    endloop
  endfacet
  facet normal -9.070909e-01 4.209348e-01 0.000000e+00
    outer loop
      vertex   -1.045868e+02 1.020065e+02 2.872226e+00
      vertex   -1.045868e+02 1.020065e+02 4.072226e+00
      vertex   -1.044461e+02 1.023096e+02 2.872226e+00
    endloop
  endfacet
  facet normal -8.769499e-01 4.805818e-01 0.000000e+00
    outer loop
      vertex   -1.044461e+02 1.023096e+02 2.872226e+00
      vertex   -1.044461e+02 1.023096e+02 4.072226e+00
      vertex   -1.042855e+02 1.026026e+02 2.872226e+00
    endloop
  endfacet
  facet normal -8.428923e-01 5.380824e-01 0.000000e+00
    outer loop
      vertex   -1.042855e+02 1.026026e+02 2.872226e+00
      vertex   -1.042855e+02 1.026026e+02 4.072226e+00
      vertex   -1.041057e+02 1.028843e+02 2.872226e+00
    endloop
  endfacet
  facet normal -8.050701e-01 5.931797e-01 0.000000e+00
    outer loop
      vertex   -1.041057e+02 1.028843e+02 2.872226e+00
      vertex   -1.041057e+02 1.028843e+02 4.072226e+00
      vertex   -1.039075e+02 1.031533e+02 2.872226e+00
    endloop
  endfacet
  facet normal -7.636522e-01 6.456279e-01 0.000000e+00
    outer loop
      vertex   -1.039075e+02 1.031533e+02 2.872226e+00
      vertex   -1.039075e+02 1.031533e+02 4.072226e+00
      vertex   -1.036918e+02 1.034084e+02 2.872226e+00
    endloop
  endfacet
  facet normal -7.188237e-01 6.951924e-01 0.000000e+00
    outer loop
      vertex   -1.036918e+02 1.034084e+02 2.872226e+00
      vertex   -1.036918e+02 1.034084e+02 4.072226e+00
      vertex   -1.034595e+02 1.036486e+02 2.872226e+00
    endloop
  endfacet
  facet normal -6.707847e-01 7.416521e-01 7.943687e-15
    outer loop
      vertex   -1.034595e+02 1.036486e+02 2.872226e+00
      vertex   -1.034595e+02 1.036486e+02 4.072226e+00
      vertex   -1.032117e+02 1.038728e+02 2.872226e+00
    endloop
  endfacet
  facet normal -6.197499e-01 7.847994e-01 0.000000e+00
    outer loop
      vertex   -1.032117e+02 1.038728e+02 2.872226e+00
      vertex   -1.032117e+02 1.038728e+02 4.072226e+00
      vertex   -1.029494e+02 1.040799e+02 2.872226e+00
    endloop
  endfacet
  facet normal -5.659471e-01 8.244416e-01 0.000000e+00
    outer loop
      vertex   -1.029494e+02 1.040799e+02 2.872226e+00
      vertex   -1.029494e+02 1.040799e+02 4.072226e+00
      vertex   -1.026739e+02 1.042690e+02 2.872226e+00
    endloop
  endfacet
  facet normal -5.096166e-01 8.604016e-01 0.000000e+00
    outer loop
      vertex   -1.026739e+02 1.042690e+02 2.872226e+00
      vertex   -1.026739e+02 1.042690e+02 4.072226e+00
      vertex   -1.023864e+02 1.044393e+02 2.872226e+00
    endloop
  endfacet
  facet normal -4.510101e-01 8.925188e-01 0.000000e+00
    outer loop
      vertex   -1.023864e+02 1.044393e+02 2.872226e+00
      vertex   -1.023864e+02 1.044393e+02 4.072226e+00
      vertex   -1.020882e+02 1.045900e+02 2.872226e+00
    endloop
  endfacet
  facet normal -3.903893e-01 9.206499e-01 0.000000e+00
    outer loop
      vertex   -1.020882e+02 1.045900e+02 2.872226e+00
      vertex   -1.020882e+02 1.045900e+02 4.072226e+00
      vertex   -1.017806e+02 1.047204e+02 2.872226e+00
    endloop
  endfacet
  facet normal -3.280249e-01 9.446691e-01 -1.118713e-14
    outer loop
      vertex   -1.017806e+02 1.047204e+02 2.872226e+00
      vertex   -1.017806e+02 1.047204e+02 4.072226e+00
      vertex   -1.014649e+02 1.048300e+02 2.872226e+00
    endloop
  endfacet
  facet normal -2.641954e-01 9.644692e-01 0.000000e+00
    outer loop
      vertex   -1.014649e+02 1.048300e+02 2.872226e+00
      vertex   -1.014649e+02 1.048300e+02 4.072226e+00
      vertex   -1.011426e+02 1.049183e+02 2.872226e+00
    endloop
  endfacet
  facet normal -1.991860e-01 9.799617e-01 0.000000e+00
    outer loop
      vertex   -1.011426e+02 1.049183e+02 2.872226e+00
      vertex   -1.011426e+02 1.049183e+02 4.072226e+00
      vertex   -1.008152e+02 1.049849e+02 2.872226e+00
    endloop
  endfacet
  facet normal -1.332870e-01 9.910775e-01 0.000000e+00
    outer loop
      vertex   -1.008152e+02 1.049849e+02 2.872226e+00
      vertex   -1.008152e+02 1.049849e+02 4.072226e+00
      vertex   -1.004840e+02 1.050294e+02 2.872226e+00
    endloop
  endfacet
  facet normal -6.679263e-02 9.977669e-01 0.000000e+00
    outer loop
      vertex   -1.004840e+02 1.050294e+02 2.872226e+00
      vertex   -1.004840e+02 1.050294e+02 4.072226e+00
      vertex   -1.001506e+02 1.050517e+02 2.872226e+00
    endloop
  endfacet
  facet normal -0.000000e+00 1.000000e+00 0.000000e+00
    outer loop
      vertex   -1.001506e+02 1.050517e+02 2.872226e+00
      vertex   -1.001506e+02 1.050517e+02 4.072226e+00
      vertex   -9.981644e+01 1.050517e+02 2.872226e+00
    endloop
  endfacet
  facet normal 6.679263e-02 9.977669e-01 -0.000000e+00
    outer loop
      vertex   -9.981644e+01 1.050517e+02 2.872226e+00
      vertex   -9.981644e+01 1.050517e+02 4.072226e+00
      vertex   -9.948304e+01 1.050294e+02 2.872226e+00
    endloop
  endfacet
  facet normal 1.332870e-01 9.910775e-01 -0.000000e+00
    outer loop
      vertex   -9.948304e+01 1.050294e+02 2.872226e+00
      vertex   -9.948304e+01 1.050294e+02 4.072226e+00
      vertex   -9.915187e+01 1.049849e+02 2.872226e+00
    endloop
  endfacet
  facet normal 1.991860e-01 9.799617e-01 -0.000000e+00
    outer loop
      vertex   -9.915187e+01 1.049849e+02 2.872226e+00
      vertex   -9.915187e+01 1.049849e+02 4.072226e+00
      vertex   -9.882442e+01 1.049183e+02 2.872226e+00
    endloop
  endfacet
  facet normal 2.641954e-01 9.644692e-01 -0.000000e+00
    outer loop
      vertex   -9.882442e+01 1.049183e+02 2.872226e+00
      vertex   -9.882442e+01 1.049183e+02 4.072226e+00
      vertex   -9.850214e+01 1.048300e+02 2.872226e+00
    endloop
  endfacet
  facet normal 3.280249e-01 9.446691e-01 -0.000000e+00
    outer loop
      vertex   -9.850214e+01 1.048300e+02 2.872226e+00
      vertex   -9.850214e+01 1.048300e+02 4.072226e+00
      vertex   -9.818648e+01 1.047204e+02 2.872226e+00
    endloop
  endfacet
  facet normal 3.903893e-01 9.206499e-01 -0.000000e+00
    outer loop
      vertex   -9.818648e+01 1.047204e+02 2.872226e+00
      vertex   -9.818648e+01 1.047204e+02 4.072226e+00
      vertex   -9.787885e+01 1.045900e+02 2.872226e+00
    endloop
  endfacet
  facet normal 4.510101e-01 8.925188e-01 -0.000000e+00
    outer loop
      vertex   -9.787885e+01 1.045900e+02 2.872226e+00
      vertex   -9.787885e+01 1.045900e+02 4.072226e+00
      vertex   -9.758061e+01 1.044393e+02 2.872226e+00
    endloop
  endfacet
  facet normal 5.096166e-01 8.604016e-01 -0.000000e+00
    outer loop
      vertex   -9.758061e+01 1.044393e+02 2.872226e+00
      vertex   -9.758061e+01 1.044393e+02 4.072226e+00
      vertex   -9.729311e+01 1.042690e+02 2.872226e+00
    endloop
  endfacet
  facet normal 5.659471e-01 8.244416e-01 -0.000000e+00
    outer loop
      vertex   -9.729311e+01 1.042690e+02 2.872226e+00
      vertex   -9.729311e+01 1.042690e+02 4.072226e+00
      vertex   -9.701762e+01 1.040799e+02 2.872226e+00
    endloop
  endfacet
  facet normal 6.197499e-01 7.847994e-01 -0.000000e+00
    outer loop
      vertex   -9.701762e+01 1.040799e+02 2.872226e+00
      vertex   -9.701762e+01 1.040799e+02 4.072226e+00
      vertex   -9.675538e+01 1.038728e+02 2.872226e+00
    endloop
  endfacet
  facet normal 6.707847e-01 7.416521e-01 -0.000000e+00
    outer loop
      vertex   -9.675538e+01 1.038728e+02 2.872226e+00
      vertex   -9.675538e+01 1.038728e+02 4.072226e+00
      vertex   -9.650756e+01 1.036486e+02 2.872226e+00
    endloop
  endfacet
  facet normal 7.188237e-01 6.951924e-01 -0.000000e+00
    outer loop
      vertex   -9.650756e+01 1.036486e+02 2.872226e+00
      vertex   -9.650756e+01 1.036486e+02 4.072226e+00
      vertex   -9.627526e+01 1.034084e+02 2.872226e+00
    endloop
  endfacet
  facet normal 7.636522e-01 6.456279e-01 -0.000000e+00
    outer loop
      vertex   -9.627526e+01 1.034084e+02 2.872226e+00
      vertex   -9.627526e+01 1.034084e+02 4.072226e+00
      vertex   -9.605952e+01 1.031533e+02 2.872226e+00
    endloop
  endfacet
  facet normal 8.050701e-01 5.931797e-01 -0.000000e+00
    outer loop
      vertex   -9.605952e+01 1.031533e+02 2.872226e+00
      vertex   -9.605952e+01 1.031533e+02 4.072226e+00
      vertex   -9.586131e+01 1.028843e+02 2.872226e+00
    endloop
  endfacet
  facet normal 8.428923e-01 5.380824e-01 -0.000000e+00
    outer loop
      vertex   -9.586131e+01 1.028843e+02 2.872226e+00
      vertex   -9.586131e+01 1.028843e+02 4.072226e+00
      vertex   -9.568151e+01 1.026026e+02 2.872226e+00
    endloop
  endfacet
  facet normal 8.769499e-01 4.805818e-01 -0.000000e+00
    outer loop
      vertex   -9.568151e+01 1.026026e+02 2.872226e+00
      vertex   -9.568151e+01 1.026026e+02 4.072226e+00
      vertex   -9.552093e+01 1.023096e+02 2.872226e+00
    endloop
  endfacet
  facet normal 9.070909e-01 4.209348e-01 -0.000000e+00
    outer loop
      vertex   -9.552093e+01 1.023096e+02 2.872226e+00
      vertex   -9.552093e+01 1.023096e+02 4.072226e+00
      vertex   -9.538027e+01 1.020065e+02 2.872226e+00
    endloop
  endfacet
  facet normal 9.331806e-01 3.594078e-01 -0.000000e+00
    outer loop
      vertex   -9.538027e+01 1.020065e+02 2.872226e+00
      vertex   -9.538027e+01 1.020065e+02 4.072226e+00
      vertex   -9.526017e+01 1.016946e+02 2.872226e+00
    endloop
  endfacet
  facet normal 9.551025e-01 2.962756e-01 -0.000000e+00
    outer loop
      vertex   -9.526017e+01 1.016946e+02 2.872226e+00
      vertex   -9.526017e+01 1.016946e+02 4.072226e+00
      vertex   -9.516117e+01 1.013755e+02 2.872226e+00
    endloop
  endfacet
  facet normal 9.727587e-01 2.318202e-01 -0.000000e+00
    outer loop
      vertex   -9.516117e+01 1.013755e+02 2.872226e+00
      vertex   -9.516117e+01 1.013755e+02 4.072226e+00
      vertex   -9.508371e+01 1.010504e+02 2.872226e+00
    endloop
  endfacet
  facet normal 9.860703e-01 1.663294e-01 -0.000000e+00
    outer loop
      vertex   -9.508371e+01 1.010504e+02 2.872226e+00
      vertex   -9.508371e+01 1.010504e+02 4.072226e+00
      vertex   -9.502813e+01 1.007210e+02 2.872226e+00
    endloop
  endfacet
  facet normal 9.949778e-01 1.000957e-01 -0.000000e+00
    outer loop
      vertex   -9.502813e+01 1.007210e+02 2.872226e+00
      vertex   -9.502813e+01 1.007210e+02 4.072226e+00
      vertex   -9.499469e+01 1.003885e+02 2.872226e+00
    endloop
  endfacet
  facet normal 9.994416e-01 3.341498e-02 -0.000000e+00
    outer loop
      vertex   -9.499469e+01 1.003885e+02 2.872226e+00
      vertex   -9.499469e+01 1.003885e+02 4.072226e+00
      vertex   -9.498352e+01 1.000545e+02 2.872226e+00
    endloop
  endfacet
  facet normal 0.000000e+00 0.000000e+00 1.000000e+00
    outer loop
      vertex   -9.499469e+01 1.003885e+02 4.072226e+00
      vertex   -1.049724e+02 1.003885e+02 4.072226e+00
      vertex   -9.498352e+01 1.000545e+02 4.072226e+00
    endloop
  endfacet
  facet normal 0.000000e+00 0.000000e+00 1.000000e+00
    outer loop
      vertex   -9.499469e+01 1.003885e+02 4.072226e+00
      vertex   -1.049389e+02 1.007210e+02 4.072226e+00
      vertex   -1.049724e+02 1.003885e+02 4.072226e+00
    endloop
  endfacet
  facet normal 0.000000e+00 0.000000e+00 1.000000e+00
    outer loop
      vertex   -9.499469e+01 1.003885e+02 4.072226e+00
      vertex   -9.502813e+01 1.007210e+02 4.072226e+00
      vertex   -1.049389e+02 1.007210e+02 4.072226e+00
    endloop
  endfacet
  facet normal 0.000000e+00 -0.000000e+00 1.000000e+00
    outer loop
      vertex   -1.049389e+02 1.007210e+02 4.072226e+00
      vertex   -9.502813e+01 1.007210e+02 4.072226e+00
      vertex   -1.048833e+02 1.010504e+02 4.072226e+00
    endloop
  endfacet
  facet normal -0.000000e+00 -0.000000e+00 1.000000e+00
    outer loop
      vertex   -1.048833e+02 1.010504e+02 4.072226e+00
      vertex   -9.502813e+01 1.007210e+02 4.072226e+00
      vertex   -9.508371e+01 1.010504e+02 4.072226e+00
    endloop
  endfacet
  facet normal -0.000000e+00 -0.000000e+00 1.000000e+00
    outer loop
      vertex   -1.048059e+02 1.013755e+02 4.072226e+00
      vertex   -9.508371e+01 1.010504e+02 4.072226e+00
      vertex   -9.516117e+01 1.013755e+02 4.072226e+00
    endloop
  endfacet
  facet normal -0.000000e+00 -0.000000e+00 1.000000e+00
    outer loop
      vertex   -1.047069e+02 1.016946e+02 4.072226e+00
      vertex   -9.516117e+01 1.013755e+02 4.072226e+00
      vertex   -9.526017e+01 1.016946e+02 4.072226e+00
    endloop
  endfacet
  facet normal -0.000000e+00 -0.000000e+00 1.000000e+00
    outer loop
      vertex   -1.045868e+02 1.020065e+02 4.072226e+00
      vertex   -9.526017e+01 1.016946e+02 4.072226e+00
      vertex   -9.538027e+01 1.020065e+02 4.072226e+00
    endloop
  endfacet
  facet normal -0.000000e+00 -0.000000e+00 1.000000e+00
    outer loop
      vertex   -1.044461e+02 1.023096e+02 4.072226e+00
      vertex   -9.538027e+01 1.020065e+02 4.072226e+00
      vertex   -9.552093e+01 1.023096e+02 4.072226e+00
    endloop
  endfacet
  facet normal -0.000000e+00 -0.000000e+00 1.000000e+00
    outer loop
      vertex   -1.042855e+02 1.026026e+02 4.072226e+00
      vertex   -9.552093e+01 1.023096e+02 4.072226e+00
      vertex   -9.568151e+01 1.026026e+02 4.072226e+00
    endloop
  endfacet
  facet normal -0.000000e+00 -0.000000e+00 1.000000e+00
    outer loop
      vertex   -1.041057e+02 1.028843e+02 4.072226e+00
      vertex   -9.568151e+01 1.026026e+02 4.072226e+00
      vertex   -9.586131e+01 1.028843e+02 4.072226e+00
    endloop
  endfacet
  facet normal -0.000000e+00 -0.000000e+00 1.000000e+00
    outer loop
      vertex   -1.039075e+02 1.031533e+02 4.072226e+00
      vertex   -9.586131e+01 1.028843e+02 4.072226e+00
      vertex   -9.605952e+01 1.031533e+02 4.072226e+00
    endloop
  endfacet
  facet normal -0.000000e+00 -0.000000e+00 1.000000e+00
    outer loop
      vertex   -1.036918e+02 1.034084e+02 4.072226e+00
      vertex   -9.605952e+01 1.031533e+02 4.072226e+00
      vertex   -9.627526e+01 1.034084e+02 4.072226e+00
    endloop
  endfacet
  facet normal -0.000000e+00 -0.000000e+00 1.000000e+00
    outer loop
      vertex   -1.034595e+02 1.036486e+02 4.072226e+00
      vertex   -9.627526e+01 1.034084e+02 4.072226e+00
      vertex   -9.650756e+01 1.036486e+02 4.072226e+00
    endloop
  endfacet
  facet normal -0.000000e+00 -0.000000e+00 1.000000e+00
    outer loop
      vertex   -1.032117e+02 1.038728e+02 4.072226e+00
      vertex   -9.650756e+01 1.036486e+02 4.072226e+00
      vertex   -9.675538e+01 1.038728e+02 4.072226e+00
    endloop
  endfacet
  facet normal -0.000000e+00 -0.000000e+00 1.000000e+00
    outer loop
      vertex   -1.029494e+02 1.040799e+02 4.072226e+00
      vertex   -9.675538e+01 1.038728e+02 4.072226e+00
      vertex   -9.701762e+01 1.040799e+02 4.072226e+00
    endloop
  endfacet
  facet normal -0.000000e+00 -0.000000e+00 1.000000e+00
    outer loop
      vertex   -1.026739e+02 1.042690e+02 4.072226e+00
      vertex   -9.701762e+01 1.040799e+02 4.072226e+00
      vertex   -9.729311e+01 1.042690e+02 4.072226e+00
    endloop
  endfacet
  facet normal -0.000000e+00 -0.000000e+00 1.000000e+00
    outer loop
      vertex   -1.023864e+02 1.044393e+02 4.072226e+00
      vertex   -9.729311e+01 1.042690e+02 4.072226e+00
      vertex   -9.758061e+01 1.044393e+02 4.072226e+00
    endloop
  endfacet
  facet normal -0.000000e+00 -0.000000e+00 1.000000e+00
    outer loop
      vertex   -1.020882e+02 1.045900e+02 4.072226e+00
      vertex   -9.758061e+01 1.044393e+02 4.072226e+00
      vertex   -9.787885e+01 1.045900e+02 4.072226e+00
    endloop
  endfacet
  facet normal -0.000000e+00 -0.000000e+00 1.000000e+00
    outer loop
      vertex   -1.017806e+02 1.047204e+02 4.072226e+00
      vertex   -9.787885e+01 1.045900e+02 4.072226e+00
      vertex   -9.818648e+01 1.047204e+02 4.072226e+00
    endloop
  endfacet
  facet normal -0.000000e+00 -0.000000e+00 1.000000e+00
    outer loop
      vertex   -1.014649e+02 1.048300e+02 4.072226e+00
      vertex   -9.818648e+01 1.047204e+02 4.072226e+00
      vertex   -9.850214e+01 1.048300e+02 4.072226e+00
    endloop
  endfacet
  facet normal -0.000000e+00 -0.000000e+00 1.000000e+00
    outer loop
      vertex   -1.011426e+02 1.049183e+02 4.072226e+00
      vertex   -9.850214e+01 1.048300e+02 4.072226e+00
      vertex   -9.882442e+01 1.049183e+02 4.072226e+00
    endloop
  endfacet
  facet normal -0.000000e+00 -0.000000e+00 1.000000e+00
    outer loop
      vertex   -1.008152e+02 1.049849e+02 4.072226e+00
      vertex   -9.882442e+01 1.049183e+02 4.072226e+00
      vertex   -9.915187e+01 1.049849e+02 4.072226e+00
    endloop
  endfacet
  facet normal -0.000000e+00 -0.000000e+00 1.000000e+00
    outer loop
      vertex   -1.004840e+02 1.050294e+02 4.072226e+00
      vertex   -9.915187e+01 1.049849e+02 4.072226e+00
      vertex   -9.948304e+01 1.050294e+02 4.072226e+00
    endloop
  endfacet
  facet normal -0.000000e+00 -0.000000e+00 1.000000e+00
    outer loop
      vertex   -1.001506e+02 1.050517e+02 4.072226e+00
      vertex   -9.948304e+01 1.050294e+02 4.072226e+00
      vertex   -9.981644e+01 1.050517e+02 4.072226e+00
    endloop
  endfacet
  facet normal -0.000000e+00 0.000000e+00 1.000000e+00
    outer loop
      vertex   -1.001506e+02 1.050517e+02 4.072226e+00
      vertex   -1.004840e+02 1.050294e+02 4.072226e+00
      vertex   -9.948304e+01 1.050294e+02 4.072226e+00
    endloop
  endfacet
  facet normal 0.000000e+00 -0.000000e+00 1.000000e+00
    outer loop
      vertex   -1.048833e+02 1.010504e+02 4.072226e+00
      vertex   -9.508371e+01 1.010504e+02 4.072226e+00
      vertex   -1.048059e+02 1.013755e+02 4.072226e+00
    endloop
  endfacet
  facet normal 0.000000e+00 -0.000000e+00 1.000000e+00
    outer loop
      vertex   -1.048059e+02 1.013755e+02 4.072226e+00
      vertex   -9.516117e+01 1.013755e+02 4.072226e+00
      vertex   -1.047069e+02 1.016946e+02 4.072226e+00
    endloop
  endfacet
  facet normal 0.000000e+00 -0.000000e+00 1.000000e+00
    outer loop
      vertex   -1.047069e+02 1.016946e+02 4.072226e+00
      vertex   -9.526017e+01 1.016946e+02 4.072226e+00
      vertex   -1.045868e+02 1.020065e+02 4.072226e+00
    endloop
  endfacet
  facet normal 0.000000e+00 -0.000000e+00 1.000000e+00
    outer loop
      vertex   -1.045868e+02 1.020065e+02 4.072226e+00
      vertex   -9.538027e+01 1.020065e+02 4.072226e+00
      vertex   -1.044461e+02 1.023096e+02 4.072226e+00
    endloop
  endfacet
  facet normal 0.000000e+00 -0.000000e+00 1.000000e+00
    outer loop
      vertex   -1.044461e+02 1.023096e+02 4.072226e+00
      vertex   -9.552093e+01 1.023096e+02 4.072226e+00
      vertex   -1.042855e+02 1.026026e+02 4.072226e+00
    endloop
  endfacet
  facet normal 0.000000e+00 -0.000000e+00 1.000000e+00
    outer loop
      vertex   -1.042855e+02 1.026026e+02 4.072226e+00
      vertex   -9.568151e+01 1.026026e+02 4.072226e+00
      vertex   -1.041057e+02 1.028843e+02 4.072226e+00
    endloop
  endfacet
  facet normal 0.000000e+00 -0.000000e+00 1.000000e+00
    outer loop
      vertex   -1.041057e+02 1.028843e+02 4.072226e+00
      vertex   -9.586131e+01 1.028843e+02 4.072226e+00
      vertex   -1.039075e+02 1.031533e+02 4.072226e+00
    endloop
  endfacet
  facet normal 0.000000e+00 -0.000000e+00 1.000000e+00
    outer loop
      vertex   -1.039075e+02 1.031533e+02 4.072226e+00
      vertex   -9.605952e+01 1.031533e+02 4.072226e+00
      vertex   -1.036918e+02 1.034084e+02 4.072226e+00
    endloop
  endfacet
  facet normal 0.000000e+00 -0.000000e+00 1.000000e+00
    outer loop
      vertex   -1.036918e+02 1.034084e+02 4.072226e+00
      vertex   -9.627526e+01 1.034084e+02 4.072226e+00
      vertex   -1.034595e+02 1.036486e+02 4.072226e+00
    endloop
  endfacet
  facet normal 0.000000e+00 -0.000000e+00 1.000000e+00
    outer loop
      vertex   -1.034595e+02 1.036486e+02 4.072226e+00
      vertex   -9.650756e+01 1.036486e+02 4.072226e+00
      vertex   -1.032117e+02 1.038728e+02 4.072226e+00
    endloop
  endfacet
  facet normal 0.000000e+00 -0.000000e+00 1.000000e+00
    outer loop
      vertex   -1.032117e+02 1.038728e+02 4.072226e+00
      vertex   -9.675538e+01 1.038728e+02 4.072226e+00
      vertex   -1.029494e+02 1.040799e+02 4.072226e+00
    endloop
  endfacet
  facet normal 0.000000e+00 -0.000000e+00 1.000000e+00
    outer loop
      vertex   -1.029494e+02 1.040799e+02 4.072226e+00
      vertex   -9.701762e+01 1.040799e+02 4.072226e+00
      vertex   -1.026739e+02 1.042690e+02 4.072226e+00
    endloop
  endfacet
  facet normal 0.000000e+00 -0.000000e+00 1.000000e+00
    outer loop
      vertex   -1.026739e+02 1.042690e+02 4.072226e+00
      vertex   -9.729311e+01 1.042690e+02 4.072226e+00
      vertex   -1.023864e+02 1.044393e+02 4.072226e+00
    endloop
  endfacet
  facet normal 0.000000e+00 -0.000000e+00 1.000000e+00
    outer loop
      vertex   -1.023864e+02 1.044393e+02 4.072226e+00
      vertex   -9.758061e+01 1.044393e+02 4.072226e+00
      vertex   -1.020882e+02 1.045900e+02 4.072226e+00
    endloop
  endfacet
  facet normal 0.000000e+00 -0.000000e+00 1.000000e+00
    outer loop
      vertex   -1.020882e+02 1.045900e+02 4.072226e+00
      vertex   -9.787885e+01 1.045900e+02 4.072226e+00
      vertex   -1.017806e+02 1.047204e+02 4.072226e+00
    endloop
  endfacet
  facet normal -0.000000e+00 -0.000000e+00 1.000000e+00
    outer loop
      vertex   -1.017806e+02 1.047204e+02 4.072226e+00
      vertex   -9.818648e+01 1.047204e+02 4.072226e+00
      vertex   -1.014649e+02 1.048300e+02 4.072226e+00
    endloop
  endfacet
  facet normal 0.000000e+00 -0.000000e+00 1.000000e+00
    outer loop
      vertex   -1.014649e+02 1.048300e+02 4.072226e+00
      vertex   -9.850214e+01 1.048300e+02 4.072226e+00
      vertex   -1.011426e+02 1.049183e+02 4.072226e+00
    endloop
  endfacet
  facet normal 0.000000e+00 -0.000000e+00 1.000000e+00
    outer loop
      vertex   -1.011426e+02 1.049183e+02 4.072226e+00
      vertex   -9.882442e+01 1.049183e+02 4.072226e+00
      vertex   -1.008152e+02 1.049849e+02 4.072226e+00
    endloop
  endfacet
  facet normal 0.000000e+00 -0.000000e+00 1.000000e+00
    outer loop
      vertex   -1.008152e+02 1.049849e+02 4.072226e+00
      vertex   -9.915187e+01 1.049849e+02 4.072226e+00
      vertex   -1.004840e+02 1.050294e+02 4.072226e+00
    endloop
  endfacet
  facet normal -0.000000e+00 0.000000e+00 1.000000e+00
    outer loop
      vertex   -1.049724e+02 1.003885e+02 4.072226e+00
      vertex   -1.049835e+02 1.000545e+02 4.072226e+00
      vertex   -9.498352e+01 1.000545e+02 4.072226e+00
    endloop
  endfacet
  facet normal 0.000000e+00 0.000000e+00 1.000000e+00
    outer loop
      vertex   -9.498352e+01 1.000545e+02 4.072226e+00
      vertex   -1.049835e+02 1.000545e+02 4.072226e+00
      vertex   -9.499469e+01 9.972055e+01 4.072226e+00
    endloop
  endfacet
  facet normal 0.000000e+00 0.000000e+00 1.000000e+00
    outer loop
      vertex   -9.499469e+01 9.972055e+01 4.072226e+00
      vertex   -1.049835e+02 1.000545e+02 4.072226e+00
      vertex   -1.049724e+02 9.972055e+01 4.072226e+00
    endloop
  endfacet
  facet normal 0.000000e+00 0.000000e+00 1.000000e+00
    outer loop
      vertex   -9.502813e+01 9.938808e+01 4.072226e+00
      vertex   -1.049724e+02 9.972055e+01 4.072226e+00
      vertex   -1.049389e+02 9.938808e+01 4.072226e+00
    endloop
  endfacet
  facet normal 0.000000e+00 0.000000e+00 1.000000e+00
    outer loop
      vertex   -9.508371e+01 9.905859e+01 4.072226e+00
      vertex   -1.049389e+02 9.938808e+01 4.072226e+00
      vertex   -1.048833e+02 9.905859e+01 4.072226e+00
    endloop
  endfacet
  facet normal 0.000000e+00 0.000000e+00 1.000000e+00
    outer loop
      vertex   -9.516117e+01 9.873354e+01 4.072226e+00
      vertex   -1.048833e+02 9.905859e+01 4.072226e+00
      vertex   -1.048059e+02 9.873354e+01 4.072226e+00
    endloop
  endfacet
  facet normal 0.000000e+00 0.000000e+00 1.000000e+00
    outer loop
      vertex   -9.526017e+01 9.841439e+01 4.072226e+00
      vertex   -1.048059e+02 9.873354e+01 4.072226e+00
      vertex   -1.047069e+02 9.841439e+01 4.072226e+00
    endloop
  endfacet
  facet normal 0.000000e+00 0.000000e+00 1.000000e+00
    outer loop
      vertex   -9.538027e+01 9.810257e+01 4.072226e+00
      vertex   -1.047069e+02 9.841439e+01 4.072226e+00
      vertex   -1.045868e+02 9.810257e+01 4.072226e+00
    endloop
  endfacet
  facet normal 0.000000e+00 0.000000e+00 1.000000e+00
    outer loop
      vertex   -9.552093e+01 9.779947e+01 4.072226e+00
      vertex   -1.045868e+02 9.810257e+01 4.072226e+00
      vertex   -1.044461e+02 9.779947e+01 4.072226e+00
    endloop
  endfacet
  facet normal 0.000000e+00 0.000000e+00 1.000000e+00
    outer loop
      vertex   -9.568151e+01 9.750643e+01 4.072226e+00
      vertex   -1.044461e+02 9.779947e+01 4.072226e+00
      vertex   -1.042855e+02 9.750643e+01 4.072226e+00
    endloop
  endfacet
  facet normal 0.000000e+00 0.000000e+00 1.000000e+00
    outer loop
      vertex   -9.586131e+01 9.722478e+01 4.072226e+00
      vertex   -1.042855e+02 9.750643e+01 4.072226e+00
      vertex   -1.041057e+02 9.722478e+01 4.072226e+00
    endloop
  endfacet
  facet normal 0.000000e+00 0.000000e+00 1.000000e+00
    outer loop
      vertex   -9.605952e+01 9.695577e+01 4.072226e+00
      vertex   -1.041057e+02 9.722478e+01 4.072226e+00
      vertex   -1.039075e+02 9.695577e+01 4.072226e+00
    endloop
  endfacet
  facet normal 0.000000e+00 0.000000e+00 1.000000e+00
    outer loop
      vertex   -9.627526e+01 9.670059e+01 4.072226e+00
      vertex   -1.039075e+02 9.695577e+01 4.072226e+00
      vertex   -1.036918e+02 9.670059e+01 4.072226e+00
    endloop
  endfacet
  facet normal 0.000000e+00 0.000000e+00 1.000000e+00
    outer loop
      vertex   -9.650756e+01 9.646040e+01 4.072226e+00
      vertex   -1.036918e+02 9.670059e+01 4.072226e+00
      vertex   -1.034595e+02 9.646040e+01 4.072226e+00
    endloop
  endfacet
  facet normal 0.000000e+00 0.000000e+00 1.000000e+00
    outer loop
      vertex   -9.675538e+01 9.623626e+01 4.072226e+00
      vertex   -1.034595e+02 9.646040e+01 4.072226e+00
      vertex   -1.032117e+02 9.623626e+01 4.072226e+00
    endloop
  endfacet
  facet normal 0.000000e+00 0.000000e+00 1.000000e+00
    outer loop
      vertex   -9.701762e+01 9.602917e+01 4.072226e+00
      vertex   -1.032117e+02 9.623626e+01 4.072226e+00
      vertex   -1.029494e+02 9.602917e+01 4.072226e+00
    endloop
  endfacet
  facet normal 0.000000e+00 0.000000e+00 1.000000e+00
    outer loop
      vertex   -9.729311e+01 9.584006e+01 4.072226e+00
      vertex   -1.029494e+02 9.602917e+01 4.072226e+00
      vertex   -1.026739e+02 9.584006e+01 4.072226e+00
    endloop
  endfacet
  facet normal 0.000000e+00 0.000000e+00 1.000000e+00
    outer loop
      vertex   -9.758061e+01 9.566977e+01 4.072226e+00
      vertex   -1.026739e+02 9.584006e+01 4.072226e+00
      vertex   -1.023864e+02 9.566977e+01 4.072226e+00
    endloop
  endfacet
  facet normal 0.000000e+00 0.000000e+00 1.000000e+00
    outer loop
      vertex   -9.787885e+01 9.551906e+01 4.072226e+00
      vertex   -1.023864e+02 9.566977e+01 4.072226e+00
      vertex   -1.020882e+02 9.551906e+01 4.072226e+00
    endloop
  endfacet
  facet normal 0.000000e+00 0.000000e+00 1.000000e+00
    outer loop
      vertex   -9.818648e+01 9.538861e+01 4.072226e+00
      vertex   -1.020882e+02 9.551906e+01 4.072226e+00
      vertex   -1.017806e+02 9.538861e+01 4.072226e+00
    endloop
  endfacet
  facet normal 0.000000e+00 0.000000e+00 1.000000e+00
    outer loop
      vertex   -9.850214e+01 9.527900e+01 4.072226e+00
      vertex   -1.017806e+02 9.538861e+01 4.072226e+00
      vertex   -1.014649e+02 9.527900e+01 4.072226e+00
    endloop
  endfacet
  facet normal 0.000000e+00 0.000000e+00 1.000000e+00
    outer loop
      vertex   -9.882442e+01 9.519072e+01 4.072226e+00
      vertex   -1.014649e+02 9.527900e+01 4.072226e+00
      vertex   -1.011426e+02 9.519072e+01 4.072226e+00
    endloop
  endfacet
  facet normal 0.000000e+00 0.000000e+00 1.000000e+00
    outer loop
      vertex   -9.915187e+01 9.512417e+01 4.072226e+00
      vertex   -1.011426e+02 9.519072e+01 4.072226e+00
      vertex   -1.008152e+02 9.512417e+01 4.072226e+00
    endloop
  endfacet
  facet normal 0.000000e+00 0.000000e+00 1.000000e+00
    outer loop
      vertex   -9.948304e+01 9.507963e+01 4.072226e+00
      vertex   -1.008152e+02 9.512417e+01 4.072226e+00
      vertex   -1.004840e+02 9.507963e+01 4.072226e+00
    endloop
  endfacet
  facet normal 0.000000e+00 0.000000e+00 1.000000e+00
    outer loop
      vertex   -9.981644e+01 9.505731e+01 4.072226e+00
      vertex   -1.004840e+02 9.507963e+01 4.072226e+00
      vertex   -1.001506e+02 9.505731e+01 4.072226e+00
    endloop
  endfacet
  facet normal 0.000000e+00 -0.000000e+00 1.000000e+00
    outer loop
      vertex   -9.981644e+01 9.505731e+01 4.072226e+00
      vertex   -9.948304e+01 9.507963e+01 4.072226e+00
      vertex   -1.004840e+02 9.507963e+01 4.072226e+00
    endloop
  endfacet
  facet normal 0.000000e+00 0.000000e+00 1.000000e+00
    outer loop
      vertex   -9.499469e+01 9.972055e+01 4.072226e+00
      vertex   -1.049724e+02 9.972055e+01 4.072226e+00
      vertex   -9.502813e+01 9.938808e+01 4.072226e+00
    endloop
  endfacet
  facet normal 0.000000e+00 0.000000e+00 1.000000e+00
    outer loop
      vertex   -9.502813e+01 9.938808e+01 4.072226e+00
      vertex   -1.049389e+02 9.938808e+01 4.072226e+00
      vertex   -9.508371e+01 9.905859e+01 4.072226e+00
    endloop
  endfacet
  facet normal 0.000000e+00 0.000000e+00 1.000000e+00
    outer loop
      vertex   -9.508371e+01 9.905859e+01 4.072226e+00
      vertex   -1.048833e+02 9.905859e+01 4.072226e+00
      vertex   -9.516117e+01 9.873354e+01 4.072226e+00
    endloop
  endfacet
  facet normal 0.000000e+00 0.000000e+00 1.000000e+00
    outer loop
      vertex   -9.516117e+01 9.873354e+01 4.072226e+00
      vertex   -1.048059e+02 9.873354e+01 4.072226e+00
      vertex   -9.526017e+01 9.841439e+01 4.072226e+00
    endloop
  endfacet
  facet normal 0.000000e+00 0.000000e+00 1.000000e+00
    outer loop
      vertex   -9.526017e+01 9.841439e+01 4.072226e+00
      vertex   -1.047069e+02 9.841439e+01 4.072226e+00
      vertex   -9.538027e+01 9.810257e+01 4.072226e+00
    endloop
  endfacet
  facet normal 0.000000e+00 0.000000e+00 1.000000e+00
    outer loop
      vertex   -9.538027e+01 9.810257e+01 4.072226e+00
      vertex   -1.045868e+02 9.810257e+01 4.072226e+00
      vertex   -9.552093e+01 9.779947e+01 4.072226e+00
    endloop
  endfacet
  facet normal 0.000000e+00 0.000000e+00 1.000000e+00
    outer loop
      vertex   -9.552093e+01 9.779947e+01 4.072226e+00
      vertex   -1.044461e+02 9.779947e+01 4.072226e+00
      vertex   -9.568151e+01 9.750643e+01 4.072226e+00
    endloop
  endfacet
  facet normal 0.000000e+00 0.000000e+00 1.000000e+00
    outer loop
      vertex   -9.568151e+01 9.750643e+01 4.072226e+00
      vertex   -1.042855e+02 9.750643e+01 4.072226e+00
      vertex   -9.586131e+01 9.722478e+01 4.072226e+00
    endloop
  endfacet
  facet normal 0.000000e+00 0.000000e+00 1.000000e+00
    outer loop
      vertex   -9.586131e+01 9.722478e+01 4.072226e+00
      vertex   -1.041057e+02 9.722478e+01 4.072226e+00
      vertex   -9.605952e+01 9.695577e+01 4.072226e+00
    endloop
  endfacet
  facet normal 0.000000e+00 0.000000e+00 1.000000e+00
    outer loop
      vertex   -9.605952e+01 9.695577e+01 4.072226e+00
      vertex   -1.039075e+02 9.695577e+01 4.072226e+00
      vertex   -9.627526e+01 9.670059e+01 4.072226e+00
    endloop
  endfacet
  facet normal 0.000000e+00 0.000000e+00 1.000000e+00
    outer loop
      vertex   -9.627526e+01 9.670059e+01 4.072226e+00
      vertex   -1.036918e+02 9.670059e+01 4.072226e+00
      vertex   -9.650756e+01 9.646040e+01 4.072226e+00
    endloop
  endfacet
  facet normal 0.000000e+00 0.000000e+00 1.000000e+00
    outer loop
      vertex   -9.650756e+01 9.646040e+01 4.072226e+00
      vertex   -1.034595e+02 9.646040e+01 4.072226e+00
      vertex   -9.675538e+01 9.623626e+01 4.072226e+00
    endloop
  endfacet
  facet normal 0.000000e+00 0.000000e+00 1.000000e+00
    outer loop
      vertex   -9.675538e+01 9.623626e+01 4.072226e+00
      vertex   -1.032117e+02 9.623626e+01 4.072226e+00
      vertex   -9.701762e+01 9.602917e+01 4.072226e+00
    endloop
  endfacet
  facet normal 0.000000e+00 0.000000e+00 1.000000e+00
    outer loop
      vertex   -9.701762e+01 9.602917e+01 4.072226e+00
      vertex   -1.029494e+02 9.602917e+01 4.072226e+00
      vertex   -9.729311e+01 9.584006e+01 4.072226e+00
    endloop
  endfacet
  facet normal 0.000000e+00 0.000000e+00 1.000000e+00
    outer loop
      vertex   -9.729311e+01 9.584006e+01 4.072226e+00
      vertex   -1.026739e+02 9.584006e+01 4.072226e+00
      vertex   -9.758061e+01 9.566977e+01 4.072226e+00
    endloop
  endfacet
  facet normal 0.000000e+00 0.000000e+00 1.000000e+00
    outer loop
      vertex   -9.758061e+01 9.566977e+01 4.072226e+00
      vertex   -1.023864e+02 9.566977e+01 4.072226e+00
      vertex   -9.787885e+01 9.551906e+01 4.072226e+00
    endloop
  endfacet
  facet normal 0.000000e+00 0.000000e+00 1.000000e+00
    outer loop
      vertex   -9.787885e+01 9.551906e+01 4.072226e+00
      vertex   -1.020882e+02 9.551906e+01 4.072226e+00
      vertex   -9.818648e+01 9.538861e+01 4.072226e+00
    endloop
  endfacet
  facet normal 0.000000e+00 0.000000e+00 1.000000e+00
    outer loop
      vertex   -9.818648e+01 9.538861e+01 4.072226e+00
      vertex   -1.017806e+02 9.538861e+01 4.072226e+00
      vertex   -9.850214e+01 9.527900e+01 4.072226e+00
    endloop
  endfacet
  facet normal 0.000000e+00 0.000000e+00 1.000000e+00
    outer loop
      vertex   -9.850214e+01 9.527900e+01 4.072226e+00
      vertex   -1.014649e+02 9.527900e+01 4.072226e+00
      vertex   -9.882442e+01 9.519072e+01 4.072226e+00
    endloop
  endfacet
  facet normal 0.000000e+00 0.000000e+00 1.000000e+00
    outer loop
      vertex   -9.882442e+01 9.519072e+01 4.072226e+00
      vertex   -1.011426e+02 9.519072e+01 4.072226e+00
      vertex   -9.915187e+01 9.512417e+01 4.072226e+00
    endloop
  endfacet
  facet normal 0.000000e+00 0.000000e+00 1.000000e+00
    outer loop
      vertex   -9.915187e+01 9.512417e+01 4.072226e+00
      vertex   -1.008152e+02 9.512417e+01 4.072226e+00
      vertex   -9.948304e+01 9.507963e+01 4.072226e+00
    endloop
  endfacet
  facet normal 0.000000e+00 0.000000e+00 -1.000000e+00
    outer loop
      vertex   -9.499469e+01 9.972055e+01 2.872226e+00
      vertex   -1.049724e+02 9.972055e+01 2.872226e+00
      vertex   -9.498352e+01 1.000545e+02 2.872226e+00
    endloop
  endfacet
  facet normal -0.000000e+00 0.000000e+00 -1.000000e+00
    outer loop
      vertex   -9.499469e+01 9.972055e+01 2.872226e+00
      vertex   -1.049389e+02 9.938808e+01 2.872226e+00
      vertex   -1.049724e+02 9.972055e+01 2.872226e+00
    endloop
  endfacet
  facet normal -0.000000e+00 0.000000e+00 -1.000000e+00
    outer loop
      vertex   -9.499469e+01 9.972055e+01 2.872226e+00
      vertex   -9.502813e+01 9.938808e+01 2.872226e+00
      vertex   -1.049389e+02 9.938808e+01 2.872226e+00
    endloop
  endfacet
  facet normal 0.000000e+00 -0.000000e+00 -1.000000e+00
    outer loop
      vertex   -1.049389e+02 9.938808e+01 2.872226e+00
      vertex   -9.502813e+01 9.938808e+01 2.872226e+00
      vertex   -1.048833e+02 9.905859e+01 2.872226e+00
    endloop
  endfacet
  facet normal 0.000000e+00 -0.000000e+00 -1.000000e+00
    outer loop
      vertex   -1.048833e+02 9.905859e+01 2.872226e+00
      vertex   -9.502813e+01 9.938808e+01 2.872226e+00
      vertex   -9.508371e+01 9.905859e+01 2.872226e+00
    endloop
  endfacet
  facet normal 0.000000e+00 -0.000000e+00 -1.000000e+00
    outer loop
      vertex   -1.048059e+02 9.873354e+01 2.872226e+00
      vertex   -9.508371e+01 9.905859e+01 2.872226e+00
      vertex   -9.516117e+01 9.873354e+01 2.872226e+00
    endloop
  endfacet
  facet normal 0.000000e+00 -0.000000e+00 -1.000000e+00
    outer loop
      vertex   -1.047069e+02 9.841439e+01 2.872226e+00
      vertex   -9.516117e+01 9.873354e+01 2.872226e+00
      vertex   -9.526017e+01 9.841439e+01 2.872226e+00
    endloop
  endfacet
  facet normal 0.000000e+00 -0.000000e+00 -1.000000e+00
    outer loop
      vertex   -1.045868e+02 9.810257e+01 2.872226e+00
      vertex   -9.526017e+01 9.841439e+01 2.872226e+00
      vertex   -9.538027e+01 9.810257e+01 2.872226e+00
    endloop
  endfacet
  facet normal 0.000000e+00 -0.000000e+00 -1.000000e+00
    outer loop
      vertex   -1.044461e+02 9.779947e+01 2.872226e+00
      vertex   -9.538027e+01 9.810257e+01 2.872226e+00
      vertex   -9.552093e+01 9.779947e+01 2.872226e+00
    endloop
  endfacet
  facet normal 0.000000e+00 -0.000000e+00 -1.000000e+00
    outer loop
      vertex   -1.042855e+02 9.750643e+01 2.872226e+00
      vertex   -9.552093e+01 9.779947e+01 2.872226e+00
      vertex   -9.568151e+01 9.750643e+01 2.872226e+00
    endloop
  endfacet
  facet normal 0.000000e+00 -0.000000e+00 -1.000000e+00
    outer loop
      vertex   -1.041057e+02 9.722478e+01 2.872226e+00
      vertex   -9.568151e+01 9.750643e+01 2.872226e+00
      vertex   -9.586131e+01 9.722478e+01 2.872226e+00
    endloop
  endfacet
  facet normal 0.000000e+00 -0.000000e+00 -1.000000e+00
    outer loop
      vertex   -1.039075e+02 9.695577e+01 2.872226e+00
      vertex   -9.586131e+01 9.722478e+01 2.872226e+00
      vertex   -9.605952e+01 9.695577e+01 2.872226e+00
    endloop
  endfacet
  facet normal 0.000000e+00 -0.000000e+00 -1.000000e+00
    outer loop
      vertex   -1.036918e+02 9.670059e+01 2.872226e+00
      vertex   -9.605952e+01 9.695577e+01 2.872226e+00
      vertex   -9.627526e+01 9.670059e+01 2.872226e+00
    endloop
  endfacet
  facet normal 0.000000e+00 -0.000000e+00 -1.000000e+00
    outer loop
      vertex   -1.034595e+02 9.646040e+01 2.872226e+00
      vertex   -9.627526e+01 9.670059e+01 2.872226e+00
      vertex   -9.650756e+01 9.646040e+01 2.872226e+00
    endloop
  endfacet
  facet normal 0.000000e+00 -0.000000e+00 -1.000000e+00
    outer loop
      vertex   -1.032117e+02 9.623626e+01 2.872226e+00
      vertex   -9.650756e+01 9.646040e+01 2.872226e+00
      vertex   -9.675538e+01 9.623626e+01 2.872226e+00
    endloop
  endfacet
  facet normal 0.000000e+00 -0.000000e+00 -1.000000e+00
    outer loop
      vertex   -1.029494e+02 9.602917e+01 2.872226e+00
      vertex   -9.675538e+01 9.623626e+01 2.872226e+00
      vertex   -9.701762e+01 9.602917e+01 2.872226e+00
    endloop
  endfacet
  facet normal 0.000000e+00 -0.000000e+00 -1.000000e+00
    outer loop
      vertex   -1.026739e+02 9.584006e+01 2.872226e+00
      vertex   -9.701762e+01 9.602917e+01 2.872226e+00
      vertex   -9.729311e+01 9.584006e+01 2.872226e+00
    endloop
  endfacet
  facet normal 0.000000e+00 -0.000000e+00 -1.000000e+00
    outer loop
      vertex   -1.023864e+02 9.566977e+01 2.872226e+00
      vertex   -9.729311e+01 9.584006e+01 2.872226e+00
      vertex   -9.758061e+01 9.566977e+01 2.872226e+00
    endloop
  endfacet
  facet normal 0.000000e+00 -0.000000e+00 -1.000000e+00
    outer loop
      vertex   -1.020882e+02 9.551906e+01 2.872226e+00
      vertex   -9.758061e+01 9.566977e+01 2.872226e+00
      vertex   -9.787885e+01 9.551906e+01 2.872226e+00
    endloop
  endfacet
  facet normal 0.000000e+00 -0.000000e+00 -1.000000e+00
    outer loop
      vertex   -1.017806e+02 9.538861e+01 2.872226e+00
      vertex   -9.787885e+01 9.551906e+01 2.872226e+00
      vertex   -9.818648e+01 9.538861e+01 2.872226e+00
    endloop
  endfacet
  facet normal 0.000000e+00 -0.000000e+00 -1.000000e+00
    outer loop
      vertex   -1.014649e+02 9.527900e+01 2.872226e+00
      vertex   -9.818648e+01 9.538861e+01 2.872226e+00
      vertex   -9.850214e+01 9.527900e+01 2.872226e+00
    endloop
  endfacet
  facet normal 0.000000e+00 -0.000000e+00 -1.000000e+00
    outer loop
      vertex   -1.011426e+02 9.519072e+01 2.872226e+00
      vertex   -9.850214e+01 9.527900e+01 2.872226e+00
      vertex   -9.882442e+01 9.519072e+01 2.872226e+00
    endloop
  endfacet
  facet normal 0.000000e+00 -0.000000e+00 -1.000000e+00
    outer loop
      vertex   -1.008152e+02 9.512417e+01 2.872226e+00
      vertex   -9.882442e+01 9.519072e+01 2.872226e+00
      vertex   -9.915187e+01 9.512417e+01 2.872226e+00
    endloop
  endfacet
  facet normal 0.000000e+00 -0.000000e+00 -1.000000e+00
    outer loop
      vertex   -1.004840e+02 9.507963e+01 2.872226e+00
      vertex   -9.915187e+01 9.512417e+01 2.872226e+00
      vertex   -9.948304e+01 9.507963e+01 2.872226e+00
    endloop
  endfacet
  facet normal 0.000000e+00 -0.000000e+00 -1.000000e+00
    outer loop
      vertex   -1.001506e+02 9.505731e+01 2.872226e+00
      vertex   -9.948304e+01 9.507963e+01 2.872226e+00
      vertex   -9.981644e+01 9.505731e+01 2.872226e+00
    endloop
  endfacet
  facet normal 0.000000e+00 0.000000e+00 -1.000000e+00
    outer loop
      vertex   -1.001506e+02 9.505731e+01 2.872226e+00
      vertex   -1.004840e+02 9.507963e+01 2.872226e+00
      vertex   -9.948304e+01 9.507963e+01 2.872226e+00
    endloop
  endfacet
  facet normal 0.000000e+00 -0.000000e+00 -1.000000e+00
    outer loop
      vertex   -1.048833e+02 9.905859e+01 2.872226e+00
      vertex   -9.508371e+01 9.905859e+01 2.872226e+00
      vertex   -1.048059e+02 9.873354e+01 2.872226e+00
    endloop
  endfacet
  facet normal 0.000000e+00 -0.000000e+00 -1.000000e+00
    outer loop
      vertex   -1.048059e+02 9.873354e+01 2.872226e+00
      vertex   -9.516117e+01 9.873354e+01 2.872226e+00
      vertex   -1.047069e+02 9.841439e+01 2.872226e+00
    endloop
  endfacet
  facet normal 0.000000e+00 -0.000000e+00 -1.000000e+00
    outer loop
      vertex   -1.047069e+02 9.841439e+01 2.872226e+00
      vertex   -9.526017e+01 9.841439e+01 2.872226e+00
      vertex   -1.045868e+02 9.810257e+01 2.872226e+00
    endloop
  endfacet
  facet normal 0.000000e+00 -0.000000e+00 -1.000000e+00
    outer loop
      vertex   -1.045868e+02 9.810257e+01 2.872226e+00
      vertex   -9.538027e+01 9.810257e+01 2.872226e+00
      vertex   -1.044461e+02 9.779947e+01 2.872226e+00
    endloop
  endfacet
  facet normal 0.000000e+00 -0.000000e+00 -1.000000e+00
    outer loop
      vertex   -1.044461e+02 9.779947e+01 2.872226e+00
      vertex   -9.552093e+01 9.779947e+01 2.872226e+00
      vertex   -1.042855e+02 9.750643e+01 2.872226e+00
    endloop
  endfacet
  facet normal 0.000000e+00 -0.000000e+00 -1.000000e+00
    outer loop
      vertex   -1.042855e+02 9.750643e+01 2.872226e+00
      vertex   -9.568151e+01 9.750643e+01 2.872226e+00
      vertex   -1.041057e+02 9.722478e+01 2.872226e+00
    endloop
  endfacet
  facet normal 0.000000e+00 -0.000000e+00 -1.000000e+00
    outer loop
      vertex   -1.041057e+02 9.722478e+01 2.872226e+00
      vertex   -9.586131e+01 9.722478e+01 2.872226e+00
      vertex   -1.039075e+02 9.695577e+01 2.872226e+00
    endloop
  endfacet
  facet normal 0.000000e+00 -0.000000e+00 -1.000000e+00
    outer loop
      vertex   -1.039075e+02 9.695577e+01 2.872226e+00
      vertex   -9.605952e+01 9.695577e+01 2.872226e+00
      vertex   -1.036918e+02 9.670059e+01 2.872226e+00
    endloop
  endfacet
  facet normal 0.000000e+00 -0.000000e+00 -1.000000e+00
    outer loop
      vertex   -1.036918e+02 9.670059e+01 2.872226e+00
      vertex   -9.627526e+01 9.670059e+01 2.872226e+00
      vertex   -1.034595e+02 9.646040e+01 2.872226e+00
    endloop
  endfacet
  facet normal 0.000000e+00 -0.000000e+00 -1.000000e+00
    outer loop
      vertex   -1.034595e+02 9.646040e+01 2.872226e+00
      vertex   -9.650756e+01 9.646040e+01 2.872226e+00
      vertex   -1.032117e+02 9.623626e+01 2.872226e+00
    endloop
  endfacet
  facet normal 0.000000e+00 -0.000000e+00 -1.000000e+00
    outer loop
      vertex   -1.032117e+02 9.623626e+01 2.872226e+00
      vertex   -9.675538e+01 9.623626e+01 2.872226e+00
      vertex   -1.029494e+02 9.602917e+01 2.872226e+00
    endloop
  endfacet
  facet normal 0.000000e+00 -0.000000e+00 -1.000000e+00
    outer loop
      vertex   -1.029494e+02 9.602917e+01 2.872226e+00
      vertex   -9.701762e+01 9.602917e+01 2.872226e+00
      vertex   -1.026739e+02 9.584006e+01 2.872226e+00
    endloop
  endfacet
  facet normal 0.000000e+00 -0.000000e+00 -1.000000e+00
    outer loop
      vertex   -1.026739e+02 9.584006e+01 2.872226e+00
      vertex   -9.729311e+01 9.584006e+01 2.872226e+00
      vertex   -1.023864e+02 9.566977e+01 2.872226e+00
    endloop
  endfacet
  facet normal 0.000000e+00 -0.000000e+00 -1.000000e+00
    outer loop
      vertex   -1.023864e+02 9.566977e+01 2.872226e+00
      vertex   -9.758061e+01 9.566977e+01 2.872226e+00
      vertex   -1.020882e+02 9.551906e+01 2.872226e+00
    endloop
  endfacet
  facet normal 0.000000e+00 -0.000000e+00 -1.000000e+00
    outer loop
      vertex   -1.020882e+02 9.551906e+01 2.872226e+00
      vertex   -9.787885e+01 9.551906e+01 2.872226e+00
      vertex   -1.017806e+02 9.538861e+01 2.872226e+00
    endloop
  endfacet
  facet normal 0.000000e+00 -0.000000e+00 -1.000000e+00
    outer loop
      vertex   -1.017806e+02 9.538861e+01 2.872226e+00
      vertex   -9.818648e+01 9.538861e+01 2.872226e+00
      vertex   -1.014649e+02 9.527900e+01 2.872226e+00
    endloop
  endfacet
  facet normal 0.000000e+00 -0.000000e+00 -1.000000e+00
    outer loop
      vertex   -1.014649e+02 9.527900e+01 2.872226e+00
      vertex   -9.850214e+01 9.527900e+01 2.872226e+00
      vertex   -1.011426e+02 9.519072e+01 2.872226e+00
    endloop
  endfacet
  facet normal 0.000000e+00 -0.000000e+00 -1.000000e+00
    outer loop
      vertex   -1.011426e+02 9.519072e+01 2.872226e+00
      vertex   -9.882442e+01 9.519072e+01 2.872226e+00
      vertex   -1.008152e+02 9.512417e+01 2.872226e+00
    endloop
  endfacet
  facet normal 0.000000e+00 -0.000000e+00 -1.000000e+00
    outer loop
      vertex   -1.008152e+02 9.512417e+01 2.872226e+00
      vertex   -9.915187e+01 9.512417e+01 2.872226e+00
      vertex   -1.004840e+02 9.507963e+01 2.872226e+00
    endloop
  endfacet
  facet normal 0.000000e+00 0.000000e+00 -1.000000e+00
    outer loop
      vertex   -1.049724e+02 9.972055e+01 2.872226e+00
      vertex   -1.049835e+02 1.000545e+02 2.872226e+00
      vertex   -9.498352e+01 1.000545e+02 2.872226e+00
    endloop
  endfacet
  facet normal 0.000000e+00 0.000000e+00 -1.000000e+00
    outer loop
      vertex   -9.498352e+01 1.000545e+02 2.872226e+00
      vertex   -1.049835e+02 1.000545e+02 2.872226e+00
      vertex   -9.499469e+01 1.003885e+02 2.872226e+00
    endloop
  endfacet
  facet normal -0.000000e+00 0.000000e+00 -1.000000e+00
    outer loop
      vertex   -9.499469e+01 1.003885e+02 2.872226e+00
      vertex   -1.049835e+02 1.000545e+02 2.872226e+00
      vertex   -1.049724e+02 1.003885e+02 2.872226e+00
    endloop
  endfacet
  facet normal -0.000000e+00 0.000000e+00 -1.000000e+00
    outer loop
      vertex   -9.502813e+01 1.007210e+02 2.872226e+00
      vertex   -1.049724e+02 1.003885e+02 2.872226e+00
      vertex   -1.049389e+02 1.007210e+02 2.872226e+00
    endloop
  endfacet
  facet normal -0.000000e+00 0.000000e+00 -1.000000e+00
    outer loop
      vertex   -9.508371e+01 1.010504e+02 2.872226e+00
      vertex   -1.049389e+02 1.007210e+02 2.872226e+00
      vertex   -1.048833e+02 1.010504e+02 2.872226e+00
    endloop
  endfacet
  facet normal -0.000000e+00 0.000000e+00 -1.000000e+00
    outer loop
      vertex   -9.516117e+01 1.013755e+02 2.872226e+00
      vertex   -1.048833e+02 1.010504e+02 2.872226e+00
      vertex   -1.048059e+02 1.013755e+02 2.872226e+00
    endloop
  endfacet
  facet normal -0.000000e+00 0.000000e+00 -1.000000e+00
    outer loop
      vertex   -9.526017e+01 1.016946e+02 2.872226e+00
      vertex   -1.048059e+02 1.013755e+02 2.872226e+00
      vertex   -1.047069e+02 1.016946e+02 2.872226e+00
    endloop
  endfacet
  facet normal -0.000000e+00 0.000000e+00 -1.000000e+00
    outer loop
      vertex   -9.538027e+01 1.020065e+02 2.872226e+00
      vertex   -1.047069e+02 1.016946e+02 2.872226e+00
      vertex   -1.045868e+02 1.020065e+02 2.872226e+00
    endloop
  endfacet
  facet normal -0.000000e+00 0.000000e+00 -1.000000e+00
    outer loop
      vertex   -9.552093e+01 1.023096e+02 2.872226e+00
      vertex   -1.045868e+02 1.020065e+02 2.872226e+00
      vertex   -1.044461e+02 1.023096e+02 2.872226e+00
    endloop
  endfacet
  facet normal -0.000000e+00 0.000000e+00 -1.000000e+00
    outer loop
      vertex   -9.568151e+01 1.026026e+02 2.872226e+00
      vertex   -1.044461e+02 1.023096e+02 2.872226e+00
      vertex   -1.042855e+02 1.026026e+02 2.872226e+00
    endloop
  endfacet
  facet normal -0.000000e+00 0.000000e+00 -1.000000e+00
    outer loop
      vertex   -9.586131e+01 1.028843e+02 2.872226e+00
      vertex   -1.042855e+02 1.026026e+02 2.872226e+00
      vertex   -1.041057e+02 1.028843e+02 2.872226e+00
    endloop
  endfacet
  facet normal -0.000000e+00 0.000000e+00 -1.000000e+00
    outer loop
      vertex   -9.605952e+01 1.031533e+02 2.872226e+00
      vertex   -1.041057e+02 1.028843e+02 2.872226e+00
      vertex   -1.039075e+02 1.031533e+02 2.872226e+00
    endloop
  endfacet
  facet normal -0.000000e+00 0.000000e+00 -1.000000e+00
    outer loop
      vertex   -9.627526e+01 1.034084e+02 2.872226e+00
      vertex   -1.039075e+02 1.031533e+02 2.872226e+00
      vertex   -1.036918e+02 1.034084e+02 2.872226e+00
    endloop
  endfacet
  facet normal -0.000000e+00 0.000000e+00 -1.000000e+00
    outer loop
      vertex   -9.650756e+01 1.036486e+02 2.872226e+00
      vertex   -1.036918e+02 1.034084e+02 2.872226e+00
      vertex   -1.034595e+02 1.036486e+02 2.872226e+00
    endloop
  endfacet
  facet normal -0.000000e+00 0.000000e+00 -1.000000e+00
    outer loop
      vertex   -9.675538e+01 1.038728e+02 2.872226e+00
      vertex   -1.034595e+02 1.036486e+02 2.872226e+00
      vertex   -1.032117e+02 1.038728e+02 2.872226e+00
    endloop
  endfacet
  facet normal -0.000000e+00 0.000000e+00 -1.000000e+00
    outer loop
      vertex   -9.701762e+01 1.040799e+02 2.872226e+00
      vertex   -1.032117e+02 1.038728e+02 2.872226e+00
      vertex   -1.029494e+02 1.040799e+02 2.872226e+00
    endloop
  endfacet
  facet normal -0.000000e+00 0.000000e+00 -1.000000e+00
    outer loop
      vertex   -9.729311e+01 1.042690e+02 2.872226e+00
      vertex   -1.029494e+02 1.040799e+02 2.872226e+00
      vertex   -1.026739e+02 1.042690e+02 2.872226e+00
    endloop
  endfacet
  facet normal -0.000000e+00 0.000000e+00 -1.000000e+00
    outer loop
      vertex   -9.758061e+01 1.044393e+02 2.872226e+00
      vertex   -1.026739e+02 1.042690e+02 2.872226e+00
      vertex   -1.023864e+02 1.044393e+02 2.872226e+00
    endloop
  endfacet
  facet normal -0.000000e+00 0.000000e+00 -1.000000e+00
    outer loop
      vertex   -9.787885e+01 1.045900e+02 2.872226e+00
      vertex   -1.023864e+02 1.044393e+02 2.872226e+00
      vertex   -1.020882e+02 1.045900e+02 2.872226e+00
    endloop
  endfacet
  facet normal -0.000000e+00 0.000000e+00 -1.000000e+00
    outer loop
      vertex   -9.818648e+01 1.047204e+02 2.872226e+00
      vertex   -1.020882e+02 1.045900e+02 2.872226e+00
      vertex   -1.017806e+02 1.047204e+02 2.872226e+00
    endloop
  endfacet
  facet normal -0.000000e+00 0.000000e+00 -1.000000e+00
    outer loop
      vertex   -9.850214e+01 1.048300e+02 2.872226e+00
      vertex   -1.017806e+02 1.047204e+02 2.872226e+00
      vertex   -1.014649e+02 1.048300e+02 2.872226e+00
    endloop
  endfacet
  facet normal -0.000000e+00 0.000000e+00 -1.000000e+00
    outer loop
      vertex   -9.882442e+01 1.049183e+02 2.872226e+00
      vertex   -1.014649e+02 1.048300e+02 2.872226e+00
      vertex   -1.011426e+02 1.049183e+02 2.872226e+00
    endloop
  endfacet
  facet normal -0.000000e+00 0.000000e+00 -1.000000e+00
    outer loop
      vertex   -9.915187e+01 1.049849e+02 2.872226e+00
      vertex   -1.011426e+02 1.049183e+02 2.872226e+00
      vertex   -1.008152e+02 1.049849e+02 2.872226e+00
    endloop
  endfacet
  facet normal -0.000000e+00 0.000000e+00 -1.000000e+00
    outer loop
      vertex   -9.948304e+01 1.050294e+02 2.872226e+00
      vertex   -1.008152e+02 1.049849e+02 2.872226e+00
      vertex   -1.004840e+02 1.050294e+02 2.872226e+00
    endloop
  endfacet
  facet normal -0.000000e+00 0.000000e+00 -1.000000e+00
    outer loop
      vertex   -9.981644e+01 1.050517e+02 2.872226e+00
      vertex   -1.004840e+02 1.050294e+02 2.872226e+00
      vertex   -1.001506e+02 1.050517e+02 2.872226e+00
    endloop
  endfacet
  facet normal -0.000000e+00 -0.000000e+00 -1.000000e+00
    outer loop
      vertex   -9.981644e+01 1.050517e+02 2.872226e+00
      vertex   -9.948304e+01 1.050294e+02 2.872226e+00
      vertex   -1.004840e+02 1.050294e+02 2.872226e+00
    endloop
  endfacet
  facet normal 0.000000e+00 0.000000e+00 -1.000000e+00
    outer loop
      vertex   -9.499469e+01 1.003885e+02 2.872226e+00
      vertex   -1.049724e+02 1.003885e+02 2.872226e+00
      vertex   -9.502813e+01 1.007210e+02 2.872226e+00
    endloop
  endfacet
  facet normal 0.000000e+00 0.000000e+00 -1.000000e+00
    outer loop
      vertex   -9.502813e+01 1.007210e+02 2.872226e+00
      vertex   -1.049389e+02 1.007210e+02 2.872226e+00
      vertex   -9.508371e+01 1.010504e+02 2.872226e+00
    endloop
  endfacet
  facet normal 0.000000e+00 0.000000e+00 -1.000000e+00
    outer loop
      vertex   -9.508371e+01 1.010504e+02 2.872226e+00
      vertex   -1.048833e+02 1.010504e+02 2.872226e+00
      vertex   -9.516117e+01 1.013755e+02 2.872226e+00
    endloop
  endfacet
  facet normal 0.000000e+00 0.000000e+00 -1.000000e+00
    outer loop
      vertex   -9.516117e+01 1.013755e+02 2.872226e+00
      vertex   -1.048059e+02 1.013755e+02 2.872226e+00
      vertex   -9.526017e+01 1.016946e+02 2.872226e+00
    endloop
  endfacet
  facet normal 0.000000e+00 0.000000e+00 -1.000000e+00
    outer loop
      vertex   -9.526017e+01 1.016946e+02 2.872226e+00
      vertex   -1.047069e+02 1.016946e+02 2.872226e+00
      vertex   -9.538027e+01 1.020065e+02 2.872226e+00
    endloop
  endfacet
  facet normal 0.000000e+00 0.000000e+00 -1.000000e+00
    outer loop
      vertex   -9.538027e+01 1.020065e+02 2.872226e+00
      vertex   -1.045868e+02 1.020065e+02 2.872226e+00
      vertex   -9.552093e+01 1.023096e+02 2.872226e+00
    endloop
  endfacet
  facet normal 0.000000e+00 0.000000e+00 -1.000000e+00
    outer loop
      vertex   -9.552093e+01 1.023096e+02 2.872226e+00
      vertex   -1.044461e+02 1.023096e+02 2.872226e+00
      vertex   -9.568151e+01 1.026026e+02 2.872226e+00
    endloop
  endfacet
  facet normal 0.000000e+00 0.000000e+00 -1.000000e+00
    outer loop
      vertex   -9.568151e+01 1.026026e+02 2.872226e+00
      vertex   -1.042855e+02 1.026026e+02 2.872226e+00
      vertex   -9.586131e+01 1.028843e+02 2.872226e+00
    endloop
  endfacet
  facet normal 0.000000e+00 0.000000e+00 -1.000000e+00
    outer loop
      vertex   -9.586131e+01 1.028843e+02 2.872226e+00
      vertex   -1.041057e+02 1.028843e+02 2.872226e+00
      vertex   -9.605952e+01 1.031533e+02 2.872226e+00
    endloop
  endfacet
  facet normal 0.000000e+00 0.000000e+00 -1.000000e+00
    outer loop
      vertex   -9.605952e+01 1.031533e+02 2.872226e+00
      vertex   -1.039075e+02 1.031533e+02 2.872226e+00
      vertex   -9.627526e+01 1.034084e+02 2.872226e+00
    endloop
  endfacet
  facet normal 0.000000e+00 0.000000e+00 -1.000000e+00
    outer loop
      vertex   -9.627526e+01 1.034084e+02 2.872226e+00
      vertex   -1.036918e+02 1.034084e+02 2.872226e+00
      vertex   -9.650756e+01 1.036486e+02 2.872226e+00
    endloop
  endfacet
  facet normal 0.000000e+00 0.000000e+00 -1.000000e+00
    outer loop
      vertex   -9.650756e+01 1.036486e+02 2.872226e+00
      vertex   -1.034595e+02 1.036486e+02 2.872226e+00
      vertex   -9.675538e+01 1.038728e+02 2.872226e+00
    endloop
  endfacet
  facet normal 0.000000e+00 0.000000e+00 -1.000000e+00
    outer loop
      vertex   -9.675538e+01 1.038728e+02 2.872226e+00
      vertex   -1.032117e+02 1.038728e+02 2.872226e+00
      vertex   -9.701762e+01 1.040799e+02 2.872226e+00
    endloop
  endfacet
  facet normal 0.000000e+00 0.000000e+00 -1.000000e+00
    outer loop
      vertex   -9.701762e+01 1.040799e+02 2.872226e+00
      vertex   -1.029494e+02 1.040799e+02 2.872226e+00
      vertex   -9.729311e+01 1.042690e+02 2.872226e+00
    endloop
  endfacet
  facet normal 0.000000e+00 0.000000e+00 -1.000000e+00
    outer loop
      vertex   -9.729311e+01 1.042690e+02 2.872226e+00
      vertex   -1.026739e+02 1.042690e+02 2.872226e+00
      vertex   -9.758061e+01 1.044393e+02 2.872226e+00
    endloop
  endfacet
  facet normal 0.000000e+00 0.000000e+00 -1.000000e+00
    outer loop
      vertex   -9.758061e+01 1.044393e+02 2.872226e+00
      vertex   -1.023864e+02 1.044393e+02 2.872226e+00
      vertex   -9.787885e+01 1.045900e+02 2.872226e+00
    endloop
  endfacet
  facet normal 0.000000e+00 0.000000e+00 -1.000000e+00
    outer loop
      vertex   -9.787885e+01 1.045900e+02 2.872226e+00
      vertex   -1.020882e+02 1.045900e+02 2.872226e+00
      vertex   -9.818648e+01 1.047204e+02 2.872226e+00
    endloop
  endfacet
  facet normal 0.000000e+00 0.000000e+00 -1.000000e+00
    outer loop
      vertex   -9.818648e+01 1.047204e+02 2.872226e+00
      vertex   -1.017806e+02 1.047204e+02 2.872226e+00
      vertex   -9.850214e+01 1.048300e+02 2.872226e+00
    endloop
  endfacet
  facet normal 0.000000e+00 0.000000e+00 -1.000000e+00
    outer loop
      vertex   -9.850214e+01 1.048300e+02 2.872226e+00
      vertex   -1.014649e+02 1.048300e+02 2.872226e+00
      vertex   -9.882442e+01 1.049183e+02 2.872226e+00
    endloop
  endfacet
  facet normal 0.000000e+00 0.000000e+00 -1.000000e+00
    outer loop
      vertex   -9.882442e+01 1.049183e+02 2.872226e+00
      vertex   -1.011426e+02 1.049183e+02 2.872226e+00
      vertex   -9.915187e+01 1.049849e+02 2.872226e+00
    endloop
  endfacet
  facet normal 0.000000e+00 0.000000e+00 -1.000000e+00
    outer loop
      vertex   -9.915187e+01 1.049849e+02 2.872226e+00
      vertex   -1.008152e+02 1.049849e+02 2.872226e+00
      vertex   -9.948304e+01 1.050294e+02 2.872226e+00
    endloop
  endfacet
endsolid
